<?xml version="1.0" encoding="UTF-8" standalone="no"?>
<svg
   xmlns:dc="http://purl.org/dc/elements/1.1/"
   xmlns:cc="http://creativecommons.org/ns#"
   xmlns:rdf="http://www.w3.org/1999/02/22-rdf-syntax-ns#"
   xmlns:svg="http://www.w3.org/2000/svg"
   xmlns="http://www.w3.org/2000/svg"
   xmlns:sodipodi="http://sodipodi.sourceforge.net/DTD/sodipodi-0.dtd"
   xmlns:inkscape="http://www.inkscape.org/namespaces/inkscape"
   viewBox="0 0 512 512"
   width="512"
   height="512"
   version="1.1"
   id="svg16"
   sodipodi:docname="bank-transfer.svg"
   inkscape:version="1.0.2 (e86c870879, 2021-01-15)">
  <metadata
     id="metadata22">
    <rdf:RDF>
      <cc:Work
         rdf:about="">
        <dc:format>image/svg+xml</dc:format>
        <dc:type
           rdf:resource="http://purl.org/dc/dcmitype/StillImage" />
      </cc:Work>
    </rdf:RDF>
  </metadata>
  <defs
     id="defs20" />
  <sodipodi:namedview
     pagecolor="#ffffff"
     bordercolor="#666666"
     borderopacity="1"
     objecttolerance="10"
     gridtolerance="10"
     guidetolerance="10"
     inkscape:pageopacity="0"
     inkscape:pageshadow="2"
     inkscape:window-width="1600"
     inkscape:window-height="863"
     id="namedview18"
     showgrid="false"
     inkscape:zoom="1.3090781"
     inkscape:cx="272.41659"
     inkscape:cy="293.5942"
     inkscape:window-x="0"
     inkscape:window-y="0"
     inkscape:window-maximized="1"
     inkscape:current-layer="linear_color" />
  <g
     id="_13-transfer"
     data-name="13-transfer">
    <g
       id="linear_color"
       data-name="linear color">
      <path
         d="M32,454a10,10,0,0,0,0,20H224a10,10,0,0,0,0-20h-6V361h6a10,10,0,0,0,10-10V336a10,10,0,0,0-4.453-8.32l-96-64a10,10,0,0,0-11.094,0l-96,64A10,10,0,0,0,22,336v15a10,10,0,0,0,10,10h6v93Zm58-92h76v92H90Zm96,92V362h12v92ZM128,284.019,213.472,341H42.528ZM58,362H70v92H58Z"
         id="path2"
         style="fill:#ffffff" />
      <path
         d="M240,486H16a10,10,0,0,0,0,20H240a10,10,0,0,0,0-20Z"
         id="path4"
         style="fill:#ffffff" />
      <path
         d="M288,200a10,10,0,0,0,0,20H480a10,10,0,0,0,0-20h-6V107h6a10,10,0,0,0,10-10V82a10,10,0,0,0-4.453-8.32l-96-64a10,10,0,0,0-11.094,0l-96,64A10,10,0,0,0,278,82V97a10,10,0,0,0,10,10h6v93Zm58-92h76v92H346Zm96,92V108h12v92ZM384,30.019,469.473,87H298.527ZM314,108h12v92H314Z"
         id="path6"
         style="fill:#ffffff" />
      <path
         d="M496,232H272a10,10,0,0,0,0,20H496a10,10,0,0,0,0-20Z"
         id="path8"
         style="fill:#ffffff" />
      <path
         d="M429.129,289.2a10,10,0,0,0-12.136,7.26A165.381,165.381,0,0,1,298.061,416.607l12.247-22.894a10,10,0,0,0-17.635-9.434L270.031,426.6a10,10,0,0,0,4.285,13.631l42.8,21.76a10,10,0,1,0,9.065-17.828l-18.6-9.457A185.863,185.863,0,0,0,436.39,301.339,10,10,0,0,0,429.129,289.2Z"
         id="path10"
         style="fill:#ffffff" />
      <path
         d="M82.872,222.8a9.984,9.984,0,0,0,12.135-7.26A165.383,165.383,0,0,1,213.939,95.393l-12.247,22.894a10,10,0,1,0,17.635,9.434L241.969,85.4a10,10,0,0,0-4.285-13.631l-42.8-21.76a10,10,0,1,0-9.065,17.828l18.6,9.457A185.86,185.86,0,0,0,75.611,210.661,10,10,0,0,0,82.872,222.8Z"
         id="path12"
         style="fill:#ffffff" />
    </g>
  </g>
</svg>
