<?xml version="1.0" encoding="UTF-8" standalone="no"?>
<svg
   xmlns:dc="http://purl.org/dc/elements/1.1/"
   xmlns:cc="http://creativecommons.org/ns#"
   xmlns:rdf="http://www.w3.org/1999/02/22-rdf-syntax-ns#"
   xmlns:svg="http://www.w3.org/2000/svg"
   xmlns="http://www.w3.org/2000/svg"
   xmlns:sodipodi="http://sodipodi.sourceforge.net/DTD/sodipodi-0.dtd"
   xmlns:inkscape="http://www.inkscape.org/namespaces/inkscape"
   version="1.1"
   x="0px"
   y="0px"
   viewBox="0 0 452 338.5"
   style="enable-background:new 0 0 452 338.5;"
   xml:space="preserve"
   id="svg46"
   sodipodi:docname="latam-icon-hero_wifi.svg"
   inkscape:version="1.0.2 (e86c870879, 2021-01-15)"><metadata
   id="metadata52"><rdf:RDF><cc:Work
       rdf:about=""><dc:format>image/svg+xml</dc:format><dc:type
         rdf:resource="http://purl.org/dc/dcmitype/StillImage" /><dc:title></dc:title></cc:Work></rdf:RDF></metadata><defs
   id="defs50" /><sodipodi:namedview
   pagecolor="#ffffff"
   bordercolor="#666666"
   borderopacity="1"
   objecttolerance="10"
   gridtolerance="10"
   guidetolerance="10"
   inkscape:pageopacity="0"
   inkscape:pageshadow="2"
   inkscape:window-width="1600"
   inkscape:window-height="863"
   id="namedview48"
   showgrid="false"
   inkscape:zoom="1.9803188"
   inkscape:cx="226"
   inkscape:cy="169.25"
   inkscape:window-x="0"
   inkscape:window-y="0"
   inkscape:window-maximized="1"
   inkscape:current-layer="wifi" />
<style
   type="text/css"
   id="style27">
	.st0{fill:#F2F2F2;}
	.st1{clip-path:url(#SVGID_2_);fill:#F2F2F2;}
	.st2{fill:#004980;}
	.st3{fill:#003B66;}
	.st4{clip-path:url(#SVGID_4_);fill:#B7CE41;}
	.st5{clip-path:url(#SVGID_4_);fill:#C2D94E;}
	.st6{clip-path:url(#SVGID_4_);fill:#99AB36;}
	.st7{clip-path:url(#SVGID_6_);fill:#002743;}
	.st8{clip-path:url(#SVGID_6_);fill:#003B66;}
	.st9{clip-path:url(#SVGID_6_);fill:#99AB36;}
	.st10{clip-path:url(#SVGID_6_);fill:#B7CE41;}
	.st11{clip-path:url(#SVGID_6_);fill:#C2D94E;}
	.st12{clip-path:url(#SVGID_6_);fill:#D6E279;}
</style>
<g
   id="pago">
</g>
<g
   id="control">
</g>
<g
   id="wifi">
	<path
   class="st0"
   d="M345.7,232.8c-13.2,13.2-34.6,13.2-47.9,0c-19.2-19.2-44.7-29.7-71.8-29.7s-52.6,10.6-71.8,29.7   c-13.2,13.2-34.7,13.2-47.9,0c-13.2-13.2-13.2-34.7,0-47.9c32-32,74.5-49.6,119.7-49.6S313.7,153,345.7,185   C358.9,198.2,358.9,219.6,345.7,232.8"
   id="path31" />
	<path
   class="st0"
   d="M441.4,137.1c-13.1,13.2-34.6,13.2-47.9,0C348.8,92.3,289.3,67.7,226,67.7S103.2,92.3,58.5,137.1   c-13.2,13.2-34.7,13.2-47.9,0c-13.2-13.2-13.2-34.6,0-47.9C68.1,31.7,144.6,0,226,0c81.4,0,157.9,31.7,215.4,89.2   C454.6,102.5,454.6,123.9,441.4,137.1"
   id="path33" />
	<path
   class="st0"
   d="M226,270.8c18.7,0,33.8,15.2,33.8,33.8c0,18.7-15.2,33.8-33.8,33.8s-33.8-15.2-33.8-33.8   C192.2,285.9,207.3,270.8,226,270.8"
   id="path35" />
	<path
   class="st0"
   d="M259.8,304.6c0,18.7-15.2,33.8-33.8,33.8v-67.7C244.7,270.8,259.8,285.9,259.8,304.6"
   id="path37" />
	<path
   class="st0"
   d="M345.7,185c13.2,13.2,13.2,34.6,0,47.9c-13.2,13.2-34.6,13.2-47.9,0c-19.2-19.2-44.7-29.7-71.8-29.7v-67.7   C271.2,135.4,313.7,153,345.7,185"
   id="path39" />
	<path
   class="st0"
   d="M441.4,137.1c-13.1,13.2-34.6,13.2-47.9,0C348.8,92.3,289.3,67.7,226,67.7V0c81.4,0,157.9,31.7,215.4,89.2   C454.6,102.5,454.6,123.9,441.4,137.1"
   id="path41" />
</g>
<g
   id="computer">
</g>
<g
   id="tv">
</g>
</svg>
