<?xml version="1.0" encoding="UTF-8" standalone="no"?>
<svg
   xmlns:dc="http://purl.org/dc/elements/1.1/"
   xmlns:cc="http://creativecommons.org/ns#"
   xmlns:rdf="http://www.w3.org/1999/02/22-rdf-syntax-ns#"
   xmlns:svg="http://www.w3.org/2000/svg"
   xmlns="http://www.w3.org/2000/svg"
   xmlns:sodipodi="http://sodipodi.sourceforge.net/DTD/sodipodi-0.dtd"
   xmlns:inkscape="http://www.inkscape.org/namespaces/inkscape"
   height="512"
   viewBox="0 0 512 512"
   width="512"
   version="1.1"
   id="svg25"
   sodipodi:docname="payment.svg"
   inkscape:version="1.0.2 (e86c870879, 2021-01-15)">
  <metadata
     id="metadata31">
    <rdf:RDF>
      <cc:Work
         rdf:about="">
        <dc:format>image/svg+xml</dc:format>
        <dc:type
           rdf:resource="http://purl.org/dc/dcmitype/StillImage" />
      </cc:Work>
    </rdf:RDF>
  </metadata>
  <defs
     id="defs29" />
  <sodipodi:namedview
     pagecolor="#ffffff"
     bordercolor="#666666"
     borderopacity="1"
     objecttolerance="10"
     gridtolerance="10"
     guidetolerance="10"
     inkscape:pageopacity="0"
     inkscape:pageshadow="2"
     inkscape:window-width="1600"
     inkscape:window-height="863"
     id="namedview27"
     showgrid="false"
     inkscape:zoom="1.3092537"
     inkscape:cx="256"
     inkscape:cy="256"
     inkscape:window-x="0"
     inkscape:window-y="0"
     inkscape:window-maximized="1"
     inkscape:current-layer="Filled_stroke_cut_Ex" />
  <g
     id="Filled_stroke_cut_Ex"
     data-name="Filled stroke cut Ex">
    <path
       d="m134.138 284.059h64a0 0 0 0 1 0 0v152a0 0 0 0 1 0 0h-4a60 60 0 0 1 -60-60v-92a0 0 0 0 1 0 0z"
       fill="#fbb8b0"
       transform="matrix(.898 -.439 .439 .898 -141.305 109.614)"
       id="path2" />
    <path
       d="m177.257 252.059h64a0 0 0 0 1 0 0v152a0 0 0 0 1 0 0h-4a60 60 0 0 1 -60-60v-92a0 0 0 0 1 0 0z"
       fill="#fbb8b0"
       transform="matrix(.898 -.439 .439 .898 -122.86 125.305)"
       id="path4" />
    <path
       d="m151.4 316.763 259.34 73a10 10 0 0 0 12.335-6.917l40.325-143.246-264 .4z"
       fill="#63c521"
       id="path6" />
    <path
       d="m88 40h400v224h-400z"
       fill="#9fdc6e"
       transform="matrix(-1 0 0 -1 576 304)"
       id="path8"
       style="fill:#c2d62e;fill-opacity:1" />
    <path
       d="m496 88h-16v-40h-384v40h-16v-48a8 8 0 0 1 8-8h400a8 8 0 0 1 8 8z"
       id="path10" />
    <path
       d="m152 496v-144l49.1-79.939a60 60 0 0 0 -15.6-81.27l-9.5-6.791-64 80h-14.6a10 10 0 0 1 -10-10v-166h-15a20 20 0 0 0 -19.612 16.078l-28.788 143.922 24 112v136z"
       fill="#ffd4cf"
       id="path12" />
    <path
       d="m56 496h-16v-135.152l-23.822-111.172a8.007 8.007 0 0 1 -.023-3.245l14.4-72 15.69 3.138-14.076 70.375 23.653 110.38a8.006 8.006 0 0 1 .178 1.676z"
       id="path14" />
    <circle
       cx="288"
       cy="152"
       fill="#fbfef9"
       r="48"
       id="circle16" />
    <path
       d="m288 208a56 56 0 1 1 56-56 56.063 56.063 0 0 1 -56 56zm0-96a40 40 0 1 0 40 40 40.045 40.045 0 0 0 -40-40z"
       id="path18" />
    <path
       d="m384 112h48v16h-48z"
       id="path20" />
    <path
       d="m480 104v152h-263.345a67.747 67.747 0 0 0 2-16h206.716a8 8 0 0 0 7.542-10.668 16 16 0 0 1 20.421-20.418 8 8 0 0 0 10.666-7.543v-106.742a8 8 0 0 0 -10.666-7.543 16 16 0 0 1 -21.334-15.086 8 8 0 0 0 -8-8h-280a8 8 0 0 0 -8 8 16.019 16.019 0 0 1 -16 16 8 8 0 0 0 -8 8v104a8 8 0 0 0 8 8 16.025 16.025 0 0 1 15.8 13.448l-27.645 34.552h-10.755a2 2 0 0 1 -2-2v-166a8 8 0 0 0 -8-8h-15a28.075 28.075 0 0 0 -27.46 22.509l-11.185 55.922 15.69 3.138 11.184-55.922a12.034 12.034 0 0 1 11.771-9.647h7v158a18.021 18.021 0 0 0 18 18h14.6a8 8 0 0 0 6.247-3l59.268-74.085 3.342 2.388a51.951 51.951 0 0 1 13.518 70.433c-.03.046-.059.093-.087.139l-49.1 79.939a8 8 0 0 0 -1.188 4.186v144h16v-77.7a68.353 68.353 0 0 0 23 10.087 68.127 68.127 0 0 0 45.2-5.169l3.593-1.758a8 8 0 0 0 3.671-10.7l-6.758-13.816a67.435 67.435 0 0 0 42.612-5.725l3.594-1.758a8 8 0 0 0 3.671-10.7l-10.141-20.733 140.126 39.445a17.993 17.993 0 0 0 22.2-12.449l31.817-113.024h25.415a8 8 0 0 0 8-8v-160zm-289.843 80.281-9.507-6.791a8 8 0 0 0 -10.9 1.512l-22.541 28.176a32.116 32.116 0 0 0 -19.209-14.165v-90.026a32.118 32.118 0 0 0 22.988-22.987h266.024a32.058 32.058 0 0 0 30.988 24v88a32.036 32.036 0 0 0 -32 32h-199.16a67.794 67.794 0 0 0 -26.683-39.719zm17.722 92.034q1.364-2.127 2.551-4.315h201.463l-12.786 48.013a32.227 32.227 0 0 0 -27.392 17.048l-169.41-51.672zm-47.879 120.985v-43.039l9.767-15.9 10.587 21.647a67.53 67.53 0 0 0 26.516 28.7l10.636 21.747a52.386 52.386 0 0 1 -57.506-13.155zm100.627-18.836a52.008 52.008 0 0 1 -65.9-25.486l-8.908-18.213 61.965 17.443zm154.743 2.219a2 2 0 0 1 -2.468 1.382l-230.18-64.794 10.929-17.793 180.563 55.073a8 8 0 0 0 10.153-5.959 16 16 0 0 1 19.049-12.223 7.991 7.991 0 0 0 9.426-5.76l15.609-58.609h17.512z"
       id="path22" />
  </g>
</svg>
