<?xml version="1.0" encoding="UTF-8" standalone="no"?>
<svg
   xmlns:dc="http://purl.org/dc/elements/1.1/"
   xmlns:cc="http://creativecommons.org/ns#"
   xmlns:rdf="http://www.w3.org/1999/02/22-rdf-syntax-ns#"
   xmlns:svg="http://www.w3.org/2000/svg"
   xmlns="http://www.w3.org/2000/svg"
   xmlns:xlink="http://www.w3.org/1999/xlink"
   xmlns:sodipodi="http://sodipodi.sourceforge.net/DTD/sodipodi-0.dtd"
   xmlns:inkscape="http://www.inkscape.org/namespaces/inkscape"
   version="1.1"
   x="0px"
   y="0px"
   viewBox="0 0 452 338.5"
   style="enable-background:new 0 0 452 338.5;"
   xml:space="preserve"
   id="svg19"
   sodipodi:docname="latam-icon-hero_control.svg"
   inkscape:version="1.0.2 (e86c870879, 2021-01-15)"><metadata
   id="metadata25"><rdf:RDF><cc:Work
       rdf:about=""><dc:format>image/svg+xml</dc:format><dc:type
         rdf:resource="http://purl.org/dc/dcmitype/StillImage" /><dc:title></dc:title></cc:Work></rdf:RDF></metadata><defs
   id="defs23" /><sodipodi:namedview
   pagecolor="#ffffff"
   bordercolor="#666666"
   borderopacity="1"
   objecttolerance="10"
   gridtolerance="10"
   guidetolerance="10"
   inkscape:pageopacity="0"
   inkscape:pageshadow="2"
   inkscape:window-width="824"
   inkscape:window-height="480"
   id="namedview21"
   showgrid="false"
   inkscape:zoom="0.73901108"
   inkscape:cx="226"
   inkscape:cy="169.25"
   inkscape:window-x="0"
   inkscape:window-y="0"
   inkscape:window-maximized="0"
   inkscape:current-layer="svg19" />
<style
   type="text/css"
   id="style2">
	.st0{fill:#F2F2F2;}
	.st1{clip-path:url(#SVGID_2_);fill:#F2F2F2;}
	.st2{fill:#004980;}
	.st3{fill:#003B66;}
	.st4{clip-path:url(#SVGID_4_);fill:#B7CE41;}
	.st5{clip-path:url(#SVGID_4_);fill:#C2D94E;}
	.st6{clip-path:url(#SVGID_4_);fill:#99AB36;}
	.st7{clip-path:url(#SVGID_6_);fill:#002743;}
	.st8{clip-path:url(#SVGID_6_);fill:#003B66;}
	.st9{clip-path:url(#SVGID_6_);fill:#99AB36;}
	.st10{clip-path:url(#SVGID_6_);fill:#B7CE41;}
	.st11{clip-path:url(#SVGID_6_);fill:#C2D94E;}
	.st12{clip-path:url(#SVGID_6_);fill:#D6E279;}
</style>
<g
   id="pago">
</g>
<g
   id="control">
	<g
   id="g13">
		<defs
   id="defs6">
			<rect
   id="SVGID_1_"
   x="132.7"
   width="186.5"
   height="338.5" />
		</defs>
		<clipPath
   id="SVGID_2_">
			<use
   xlink:href="#SVGID_1_"
   style="overflow:visible;"
   id="use8" />
		</clipPath>
		<path
   class="st1"
   d="M285.6,0H166.4c-18.6,0-33.7,15.1-33.7,33.7v271.1c0,18.6,15.1,33.7,33.7,33.7h119.2    c18.6,0,33.7-15.1,33.7-33.7V33.7C319.3,15.1,304.2,0,285.6,0 M235.3,172.5c-2.9-1-6.1-1.5-9.3-1.5c-3.3,0-6.4,0.5-9.3,1.5    c-2.8,0.9-5.9,0.1-8-2L194,155.8c-3.7-3.8-2.7-10,2-12.5c9-4.7,19.2-7.4,30-7.4c10.8,0,21,2.7,30,7.4c4.7,2.5,5.7,8.7,2,12.5    l-14.6,14.6C241.2,172.6,238.1,173.4,235.3,172.5 M242.8,200.6c0,9.3-7.5,16.8-16.8,16.8c-9.3,0-16.8-7.5-16.8-16.8    s7.5-16.8,16.8-16.8C235.3,183.8,242.8,191.3,242.8,200.6 M172.2,33.6h30.6c7.2,0,13,5.8,13,13c0,7.2-5.8,13-13,13h-30.6    c-7.2,0-13-5.8-13-13C159.2,39.4,165,33.6,172.2,33.6 M172.2,90.3h30.6c7.2,0,13,5.8,13,13c0,7.2-5.8,13-13,13h-30.6    c-7.2,0-13-5.8-13-13C159.2,96.1,165,90.3,172.2,90.3 M168.8,230.5c-4.7-9-7.4-19.2-7.4-30c0-10.8,2.7-21,7.4-30    c2.5-4.7,8.7-5.7,12.5-2l14.6,14.6c2.1,2.1,2.9,5.2,2,8c-1,2.9-1.5,6.1-1.5,9.3c0,3.3,0.5,6.4,1.5,9.3c0.9,2.8,0.1,5.9-2,8    l-14.6,14.6C177.5,236.3,171.3,235.2,168.8,230.5 M256,257.8c-9,4.7-19.2,7.4-30,7.4c-10.8,0-21-2.7-30-7.4    c-4.7-2.5-5.7-8.7-2-12.5l14.6-14.6c2.1-2.1,5.2-2.9,8-2c2.9,1,6.1,1.5,9.3,1.5c3.3,0,6.4-0.5,9.3-1.5c2.8-0.9,5.9-0.1,8,2    l14.6,14.6C261.7,249,260.7,255.3,256,257.8 M283.2,230.5c-2.5,4.7-8.7,5.7-12.5,2l-14.6-14.6c-2.1-2.1-2.9-5.2-2-8    c1-2.9,1.5-6.1,1.5-9.3s-0.5-6.4-1.5-9.3c-0.9-2.8-0.1-5.9,2-8l14.6-14.6c3.7-3.7,9.9-2.9,12.3,1.7c4.8,9,7.5,19.3,7.5,30.2    C290.6,211.4,287.9,221.6,283.2,230.5 M279.8,116.3h-30.6c-7.2,0-13-5.8-13-13c0-7.2,5.8-13,13-13h30.6c7.2,0,13,5.8,13,13    C292.8,110.5,287,116.3,279.8,116.3 M270.9,69.5c-14,0-25.4-11.4-25.4-25.4c0-14,11.4-25.4,25.4-25.4c14,0,25.4,11.4,25.4,25.4    C296.3,58.2,284.9,69.5,270.9,69.5"
   clip-path="url(#SVGID_2_)"
   id="path11" />
	</g>
</g>
<g
   id="wifi">
</g>
<g
   id="computer">
</g>
<g
   id="tv">
</g>
</svg>
