<?xml version="1.0" encoding="UTF-8" standalone="no"?>
<!-- Generator: Adobe Illustrator 22.1.0, SVG Export Plug-In . SVG Version: 6.00 Build 0)  -->

<svg
   version="1.1"
   id="svg14"
   focusable="false"
   inkscape:version="1.1 (c68e22c387, 2021-05-23)"
   sodipodi:docname="login.svg"
   x="0px"
   y="0px"
   viewBox="0 0 448 512"
   style="enable-background:new 0 0 448 512;"
   xml:space="preserve"
   xmlns:inkscape="http://www.inkscape.org/namespaces/inkscape"
   xmlns:sodipodi="http://sodipodi.sourceforge.net/DTD/sodipodi-0.dtd"
   xmlns="http://www.w3.org/2000/svg"
   xmlns:svg="http://www.w3.org/2000/svg"><defs
   id="defs10" />
<style
   type="text/css"
   id="style2">
	.st0{fill:none;stroke:#1B4686;stroke-width:37;stroke-miterlimit:10;}
</style>
<sodipodi:namedview
   bordercolor="#666666"
   borderopacity="1"
   gridtolerance="10"
   guidetolerance="10"
   id="namedview16"
   inkscape:current-layer="svg14"
   inkscape:cx="314.86889"
   inkscape:cy="320.80981"
   inkscape:pageopacity="0"
   inkscape:pageshadow="2"
   inkscape:window-height="1011"
   inkscape:window-maximized="1"
   inkscape:window-width="1920"
   inkscape:window-x="0"
   inkscape:window-y="0"
   inkscape:zoom="0.92578217"
   objecttolerance="10"
   pagecolor="#ffffff"
   showgrid="false"
   inkscape:pagecheckerboard="0">
	</sodipodi:namedview>


<path
   fill="currentColor"
   d="m 426.73513,338.93403 c 1.81738,-9.8558 1.81738,-19.92129 0,-29.77709 l 18.03402,-10.415 c 2.09697,-1.18828 3.00567,-3.63476 2.30667,-5.94144 -4.68325,-15.09824 -12.72167,-28.7985 -23.20656,-40.12218 -1.60768,-1.74749 -4.19396,-2.16688 -6.29094,-0.97859 l -18.03401,10.41499 c -7.61902,-6.50063 -16.35643,-11.53338 -25.79284,-14.88855 v -20.82998 c 0,-2.37658 -1.67758,-4.47356 -3.98425,-4.96285 -15.58754,-3.49497 -31.45468,-3.35517 -46.27333,0 -2.30668,0.48929 -3.98426,2.58627 -3.98426,4.96285 v 20.82998 c -9.4364,3.35517 -18.17381,8.38792 -25.79283,14.88855 l -18.03402,-10.41499 c -2.02708,-1.18829 -4.68325,-0.7689 -6.29094,0.97859 -10.48489,11.32368 -18.52331,25.02394 -23.20656,40.12218 -0.69899,2.30668 0.2796,4.75316 2.30668,5.94144 l 18.03401,10.415 c -1.81738,9.8558 -1.81738,19.92129 0,29.77709 l -18.03401,10.41499 c -2.09698,1.18829 -3.00567,3.63477 -2.30668,5.94144 4.68325,15.09825 12.72167,28.72861 23.20656,40.12219 1.60769,1.74748 4.19396,2.16688 6.29094,0.97859 l 18.03402,-10.41499 c 7.61902,6.50063 16.35643,11.53338 25.79283,14.88855 v 20.82998 c 0,2.37658 1.67758,4.47356 3.98426,4.96285 15.58754,3.49497 31.45468,3.35517 46.27333,0 2.30667,-0.48929 3.98425,-2.58627 3.98425,-4.96285 V 400.8648 c 9.43641,-3.35517 18.17382,-8.38792 25.79284,-14.88855 l 18.03401,10.41499 c 2.02708,1.18829 4.68326,0.76889 6.29094,-0.97859 10.48489,-11.32368 18.52331,-25.02394 23.20656,-40.12219 0.699,-2.30667 -0.27959,-4.75315 -2.30667,-5.94144 z m -80.03468,19.01261 c -18.73301,0 -33.90115,-15.23805 -33.90115,-33.90116 0,-18.6631 15.23804,-33.90115 33.90115,-33.90115 18.66311,0 33.90115,15.23805 33.90115,33.90115 0,18.66311 -15.16814,33.90116 -33.90115,33.90116 z M 156.5744,256.94217 c 49.41879,0 89.47108,-40.05229 89.47108,-89.47108 C 246.04548,118.05229 205.99319,78 156.5744,78 c -49.4188,0 -89.471088,40.05229 -89.471088,89.47109 0,49.41879 40.052288,89.47108 89.471088,89.47108 z m 140.63736,158.32188 c -1.60768,-0.83879 -3.21537,-1.81738 -4.75315,-2.72607 l -5.52205,3.21536 c -4.19395,2.37658 -8.9471,3.70467 -13.70025,3.70467 -7.61903,0 -14.95845,-3.21537 -20.2009,-8.80731 -12.79157,-13.84006 -22.57747,-30.68579 -28.09951,-48.64991 -3.84446,-12.37217 1.32809,-25.44333 12.51197,-31.94397 l 5.52205,-3.21536 c -0.0699,-1.81739 -0.0699,-3.63477 0,-5.45215 l -5.52205,-3.21537 c -11.18388,-6.43073 -16.35643,-19.5718 -12.51197,-31.94397 0.62909,-2.02708 1.53778,-4.05416 2.23678,-6.08124 -2.65618,-0.20969 -5.24245,-0.83879 -7.96852,-0.83879 h -11.67318 c -15.51764,7.12973 -32.78276,11.18389 -50.95658,11.18389 -18.17381,0 -35.36904,-4.05416 -50.95658,-11.18389 H 93.944637 C 42.079369,279.30994 0,321.38931 0,373.25458 v 29.0781 c 0,18.52331 15.028346,33.55166 33.551656,33.55166 H 279.59714 c 7.05983,0 13.63036,-2.23678 19.0126,-5.94144 -0.83879,-2.65617 -1.39798,-5.38225 -1.39798,-8.24812 z"
   id="path2"
   style="stroke-width:0.698993;stroke:none;stroke-opacity:1;fill:#1b4686;fill-opacity:1" /></svg>
