<?xml version="1.0" encoding="utf-8"?>
<!-- Generator: Adobe Illustrator 22.1.0, SVG Export Plug-In . SVG Version: 6.00 Build 0)  -->
<svg version="1.1"
	 id="svg14" focusable="false" inkscape:version="1.0.2 (e86c870879, 2021-01-15)" sodipodi:docname="instagram.svg" xmlns:cc="http://creativecommons.org/ns#" xmlns:dc="http://purl.org/dc/elements/1.1/" xmlns:inkscape="http://www.inkscape.org/namespaces/inkscape" xmlns:rdf="http://www.w3.org/1999/02/22-rdf-syntax-ns#" xmlns:sodipodi="http://sodipodi.sourceforge.net/DTD/sodipodi-0.dtd" xmlns:svg="http://www.w3.org/2000/svg"
	 xmlns="http://www.w3.org/2000/svg" xmlns:xlink="http://www.w3.org/1999/xlink" x="0px" y="0px" viewBox="0 0 448 512"
	 style="enable-background:new 0 0 448 512;" xml:space="preserve">
<style type="text/css">
	.st0{fill:none;stroke:#1B4686;stroke-width:37;stroke-miterlimit:10;}
</style>
<sodipodi:namedview  bordercolor="#666666" borderopacity="1" gridtolerance="10" guidetolerance="10" id="namedview16" inkscape:current-layer="svg14" inkscape:cx="224" inkscape:cy="256" inkscape:pageopacity="0" inkscape:pageshadow="2" inkscape:window-height="863" inkscape:window-maximized="1" inkscape:window-width="1600" inkscape:window-x="0" inkscape:window-y="0" inkscape:zoom="1.3092537" objecttolerance="10" pagecolor="#ffffff" showgrid="false">
	</sodipodi:namedview>
<path class="st0" d="M424.3,307.6l-36.8-21.2c3.7-20.1,3.7-40.7,0-60.8l36.8-21.2c4.3-2.4,6.1-7.4,4.7-12.1
	c-9.6-30.8-25.9-58.8-47.4-81.9c-3.3-3.6-8.5-4.5-12.8-2l-36.8,21.2c-15.6-13.3-33.3-23.6-52.7-30.4V56.7c0-4.9-3.5-9.1-8.1-10.2
	c-31.8-7.1-64.2-6.8-94.4,0c-4.7,1-8.1,5.3-8.1,10.2v42.5c-19.3,6.8-37.1,17.1-52.7,30.4l-36.8-21.2c-4.2-2.4-9.6-1.5-12.8,2
	c-21.4,23.1-37.8,51.1-47.4,81.9c-1.4,4.7,0.6,9.7,4.7,12.1l36.8,21.2c-3.7,20.1-3.7,40.7,0,60.8l-36.8,21.2
	c-4.3,2.4-6.1,7.4-4.7,12.1c9.6,30.8,25.9,58.7,47.4,81.9c3.3,3.6,8.5,4.5,12.8,2l36.8-21.2c15.6,13.3,33.3,23.6,52.7,30.4v42.5
	c0,4.9,3.5,9.1,8.1,10.2c31.8,7.1,64.2,6.8,94.4,0c4.7-1,8.1-5.3,8.1-10.2v-42.5c19.3-6.8,37.1-17.1,52.7-30.4l36.8,21.2
	c4.2,2.4,9.6,1.5,12.8-2c21.4-23.1,37.8-51.1,47.4-81.9C430.4,315.1,428.5,310.1,424.3,307.6z"/>
<ellipse class="st0" cx="224.2" cy="256" rx="76" ry="76"/>
</svg>
