<?xml version="1.0" encoding="utf-8"?>
<!-- Generator: Adobe Illustrator 22.1.0, SVG Export Plug-In . SVG Version: 6.00 Build 0)  -->
<svg version="1.1" xmlns="http://www.w3.org/2000/svg" xmlns:xlink="http://www.w3.org/1999/xlink" x="0px" y="0px"
	 viewBox="0 0 452 338.5" style="enable-background:new 0 0 452 338.5;" xml:space="preserve">
<style type="text/css">
	.st0{fill:#F2F2F2;}
	.st1{clip-path:url(#SVGID_2_);fill:#F2F2F2;}
	.st2{fill:#004980;}
	.st3{fill:#003B66;}
	.st4{clip-path:url(#SVGID_4_);fill:#B7CE41;}
	.st5{clip-path:url(#SVGID_4_);fill:#C2D94E;}
	.st6{clip-path:url(#SVGID_4_);fill:#99AB36;}
	.st7{clip-path:url(#SVGID_6_);fill:#002743;}
	.st8{clip-path:url(#SVGID_6_);fill:#003B66;}
	.st9{clip-path:url(#SVGID_6_);fill:#99AB36;}
	.st10{clip-path:url(#SVGID_6_);fill:#B7CE41;}
	.st11{clip-path:url(#SVGID_6_);fill:#C2D94E;}
	.st12{clip-path:url(#SVGID_6_);fill:#D6E279;}
</style>
<g id="pago">
</g>
<g id="control">
</g>
<g id="wifi">
</g>
<g id="computer">
	<rect x="51.2" y="11.7" class="st2" width="351.4" height="266.8"/>
	<rect x="225.7" y="11.7" class="st3" width="176.9" height="266.8"/>
	<g>
		<defs>
			<rect id="SVGID_3_" width="452" height="338.5"/>
		</defs>
		<clipPath id="SVGID_2_">
			<use xlink:href="#SVGID_3_"  style="overflow:visible;"/>
		</clipPath>
		<path style="clip-path:url(#SVGID_2_);fill:#B7CE41;" d="M403.4,0H48c-8.3,0-15,6.7-15,15v258.5c0,8.3,6.7,15,15,15h355.4
			c8.3,0,15-6.7,15-15V15C418.4,6.7,411.7,0,403.4,0z M388.4,258.5H63V30h325.4V258.5z"/>
		<path style="clip-path:url(#SVGID_2_);fill:#C2D94E;" d="M278.7,172.4c-5.8,5.8-15.4,5.9-21.2,0c-8.5-8.5-19.8-13.2-31.8-13.2
			c-12,0-23.3,4.7-31.8,13.2c-5.9,5.9-15.4,5.9-21.2,0c-5.9-5.9-5.9-15.4,0-21.2c14.2-14.2,33-22,53-22s38.9,7.8,53,22
			C284.6,157,284.6,166.5,278.7,172.4"/>
		<path style="clip-path:url(#SVGID_2_);fill:#C2D94E;" d="M321.2,130c-5.8,5.8-15.3,5.9-21.2,0c-19.8-19.8-46.2-30.8-74.2-30.8
			s-54.4,10.9-74.2,30.8c-5.9,5.9-15.4,5.9-21.2,0c-5.9-5.8-5.9-15.3,0-21.2c25.5-25.5,59.4-39.5,95.5-39.5c36.1,0,70,14,95.5,39.5
			C327,114.6,327,124.1,321.2,130"/>
		<path style="clip-path:url(#SVGID_2_);fill:#C2D94E;" d="M225.7,189.2c8.3,0,15,6.7,15,15s-6.7,15-15,15c-8.3,0-15-6.7-15-15
			S217.4,189.2,225.7,189.2"/>
		<path style="clip-path:url(#SVGID_2_);fill:#B7CE41;" d="M240.7,204.2c0,8.3-6.7,15-15,15v-30C234,189.2,240.7,195.9,240.7,204.2"
			/>
		<path style="clip-path:url(#SVGID_2_);fill:#B7CE41;" d="M278.7,151.2c5.8,5.9,5.8,15.4,0,21.2c-5.8,5.8-15.4,5.9-21.2,0
			c-8.5-8.5-19.8-13.2-31.8-13.2v-30C245.7,129.2,264.6,137,278.7,151.2"/>
		<path style="clip-path:url(#SVGID_2_);fill:#B7CE41;" d="M321.2,130c-5.8,5.8-15.3,5.9-21.2,0c-19.8-19.8-46.2-30.8-74.2-30.8v-30
			c36.1,0,70,14,95.5,39.5C327,114.6,327,124.1,321.2,130"/>
		<path style="clip-path:url(#SVGID_2_);fill:#99AB36;" d="M418.4,15v258.5c0,8.3-6.7,15-15,15H226v-30h162.4V30H226V0h177.4
			C411.7,0,418.4,6.7,418.4,15"/>
		<path style="clip-path:url(#SVGID_2_);fill:#C2D94E;" d="M452,273.4v7.5c0,31.7-25.8,57.5-57.5,57.5H57.5
			C25.8,338.4,0,312.7,0,281v-7.5c0-8.3,6.7-15,15-15h422C445.3,258.4,452,265.2,452,273.4"/>
		<path style="clip-path:url(#SVGID_2_);fill:#B7CE41;" d="M452,273.4v7.5c0,31.7-25.8,57.5-57.5,57.5H225.7v-80H437
			C445.3,258.4,452,265.2,452,273.4"/>
	</g>
</g>
<g id="tv">
</g>
</svg>
