<?xml version="1.0" encoding="UTF-8" standalone="no"?>
<svg
   xmlns:dc="http://purl.org/dc/elements/1.1/"
   xmlns:cc="http://creativecommons.org/ns#"
   xmlns:rdf="http://www.w3.org/1999/02/22-rdf-syntax-ns#"
   xmlns:svg="http://www.w3.org/2000/svg"
   xmlns="http://www.w3.org/2000/svg"
   xmlns:sodipodi="http://sodipodi.sourceforge.net/DTD/sodipodi-0.dtd"
   xmlns:inkscape="http://www.inkscape.org/namespaces/inkscape"
   version="1.1"
   id="svg2"
   xml:space="preserve"
   width="789.48022"
   height="306.72934"
   viewBox="0 0 789.48022 306.72934"
   sodipodi:docname="latam-logo.svg"
   inkscape:version="1.0.2 (e86c870879, 2021-01-15)"><metadata
     id="metadata8"><rdf:RDF><cc:Work
         rdf:about=""><dc:format>image/svg+xml</dc:format><dc:type
           rdf:resource="http://purl.org/dc/dcmitype/StillImage" /><dc:title></dc:title></cc:Work></rdf:RDF></metadata><defs
     id="defs6"><clipPath
       clipPathUnits="userSpaceOnUse"
       id="clipPath18"><path
         d="M 0,720 H 720 V 0 H 0 Z"
         id="path16" /></clipPath></defs><sodipodi:namedview
     pagecolor="#ffffff"
     bordercolor="#666666"
     borderopacity="1"
     objecttolerance="10"
     gridtolerance="10"
     guidetolerance="10"
     inkscape:pageopacity="0"
     inkscape:pageshadow="2"
     inkscape:window-width="1600"
     inkscape:window-height="863"
     id="namedview4"
     showgrid="false"
     fit-margin-top="0"
     fit-margin-left="0"
     fit-margin-right="0"
     fit-margin-bottom="0"
     inkscape:zoom="0.83593038"
     inkscape:cx="365.89561"
     inkscape:cy="144.70978"
     inkscape:window-x="0"
     inkscape:window-y="0"
     inkscape:window-maximized="1"
     inkscape:current-layer="g12" /><g
     id="g10"
     inkscape:groupmode="layer"
     inkscape:label="latam-logo"
     transform="matrix(1.3333333,0,0,-1.3333333,-0.01836,959.97898)"><g
       id="g12"><g
         id="g14"
         clip-path="url(#clipPath18)"
         transform="translate(-59.40493,244.34215)"><g
           id="g20"
           transform="translate(60.937,428.8037)"><path
             d="m 0,0 v -164.909 c 0.005,-7.651 5.197,-14.131 12.22,-16.141 H 181.045 C 181.045,-81.056 99.986,0 0,0"
             style="fill:#1b4686;fill-opacity:1;fill-rule:nonzero;stroke:none"
             id="path22" /></g><g
           id="g24"
           transform="translate(117.1826,369.9644)"><path
             d="M 0,0 C 1.028,0.734 0.322,2.187 1.131,2.963 1.57,4.504 2.122,5.813 2.467,7.332 1.084,7.533 -0.285,7.267 -1.565,6.884 -1.659,6.79 -1.757,6.678 -1.874,6.575 -2.08,5.276 -2.589,3.944 -3.752,3.304 -3.996,3.37 -4.239,3.417 -4.374,3.546 c -5.122,-2.598 -8.533,5.403 -6.21,9.174 0.023,0.188 0.027,0.392 -0.029,0.585 -3.874,-0.146 -3.215,6.074 -7.056,5.729 -0.355,-0.346 -0.411,-0.939 -0.809,-1.224 -0.2,0.05 -0.406,0.042 -0.551,0.111 -1.565,1.197 -2.079,3.01 -3.739,4.168 -0.672,0.052 -1.378,0.08 -2.042,-0.008 -0.098,-0.285 0.047,-0.632 -0.233,-0.836 -3,-0.478 -5.753,0.849 -8.253,2.023 -0.135,0.06 -0.318,0.088 -0.533,0.069 -0.756,-0.037 -1.551,-0.06 -2.28,-0.298 0.696,-1.263 0.963,-2.645 1.556,-3.762 0.631,-1.201 2.435,-1.154 2.374,-2.894 -0.243,-0.425 -0.71,-0.284 -1.07,-0.425 0.019,-0.046 0.023,-0.102 0.079,-0.176 1.281,-1.183 4.337,-1.804 3.341,-4.099 0.945,-0.607 2.295,-1.332 2.73,-2.444 0.079,-0.061 0.163,-0.131 0.261,-0.145 0.225,0.215 0.412,0.476 0.711,0.607 0.037,0.112 0.051,0.239 0.019,0.383 -0.458,0.435 -0.958,0.95 -1.594,0.992 -0.253,2.219 -2.5,3.798 -2.659,5.841 -1.528,1.261 -3.07,2.682 -2.809,4.859 0.72,0.067 2.337,-0.424 2.117,-1.318 0.58,-2.434 2.982,-3.995 4.411,-6.037 0.412,-0.579 0.603,-1.309 1.071,-1.831 1.168,-1.305 4.729,-3.323 4.177,-5.487 -0.2,-0.804 0.389,-0.925 -0.229,-1.598 -0.023,-0.108 -0.037,-0.234 -0.004,-0.37 3.416,-2.845 7.776,-4.406 12.024,-5.766 0.748,-0.047 1.374,0.64 2.075,0.856 0.089,-0.01 0.187,-0.01 0.271,-0.015 1.294,-0.327 1.813,-1.612 3.005,-2.028 0.677,-0.804 1.766,-1.079 2.803,-1.14 0.014,-0.033 0.033,-0.07 0.052,-0.107 0.794,-0.36 2.061,-1.033 2.841,-0.351 0.308,0.028 0.308,-0.243 0.323,-0.481 0.284,-0.981 1.467,-1.631 2.06,-2.505 C 3.809,-6.627 4,-6.925 3.752,-7.089 3.734,-7.238 3.748,-7.36 3.771,-7.477 c 0.187,-0.378 0.552,-0.58 0.902,-0.776 0.743,0.347 1.808,-0.71 1.987,-1.504 0.382,0.06 0.649,-0.042 0.924,-0.3 1.071,-0.008 2.108,-0.598 2.715,-1.368 0.089,-0.03 0.173,-0.037 0.267,-0.047 0.084,0.027 0.13,0.074 0.177,0.126 0.146,0.01 0.276,0.032 0.393,0.07 0.047,0.28 -0.229,0.538 -0.393,0.747 l 0.781,0.982 c 0.243,0.009 0.383,0.135 0.485,0.276 0.034,0.018 0.066,0.032 0.104,0.06 0.612,0.038 1.089,-0.457 1.551,-0.747 -0.412,-0.509 0.169,-0.959 0.327,-1.44 0.252,-0.332 0.229,-0.784 0.649,-1.022 -0.144,-1.216 -0.251,-2.693 0.459,-3.641 -0.07,-0.318 -0.313,-0.51 -0.328,-0.837 -0.308,-0.519 -0.911,-0.538 -1.429,-0.551 -0.047,-0.056 -0.098,-0.09 -0.159,-0.141 0,-0.565 0,-0.991 -0.458,-1.336 0.051,-0.121 0.121,-0.252 0.196,-0.379 -0.421,-0.079 -0.808,-0.201 -1.243,-0.276 -0.112,-0.087 -0.201,-0.191 -0.318,-0.289 -0.145,-0.902 -0.453,-1.714 -1.215,-2.285 0.215,-0.467 0.005,-0.972 0.014,-1.429 0.281,-0.314 0.693,-0.459 0.996,-0.762 0.121,-0.281 -0.136,-0.575 -0.318,-0.772 -0.435,-0.149 -0.635,-0.677 -0.911,-1.028 0.074,-0.673 0.724,-1.509 0.154,-1.973 3.378,-2.112 3.845,-6.466 6.084,-9.537 0.169,-2.752 4.089,-3.295 5.963,-4.729 0.098,-0.579 0.622,-0.836 1.056,-1.164 0.551,-1.303 0.337,-2.621 0.585,-3.832 -0.454,-2.425 -0.37,-5.556 -1.01,-8.21 -0.271,-1.187 -0.94,-2.331 -0.519,-3.495 -0.481,-3.847 0.117,-7.936 -2.295,-11.324 -0.294,0.005 -0.49,-0.191 -0.677,-0.392 0.785,-2.29 0.084,-4.271 -0.14,-6.655 0.173,-0.116 0.238,-0.256 0.337,-0.383 0.051,0 0.093,-0.013 0.149,-0.033 0.177,0.113 0.43,0.057 0.566,0.234 0.13,0.029 0.205,-0.037 0.308,-0.084 0.097,-0.009 0.159,-0.042 0.215,-0.084 0.038,-0.215 0.046,-0.463 0.177,-0.599 -0.406,-0.971 -0.406,-2.088 -0.846,-3.036 0,-0.481 0.238,-0.865 0.678,-1.066 0.047,-0.168 0.052,-0.378 -0.009,-0.565 -0.669,-0.561 -1.369,-1.155 -1.515,-2.178 -0.187,-0.177 -0.34,-0.286 -0.495,-0.365 -0.163,0.042 -0.299,0.243 -0.406,0.365 -0.089,0.032 -0.159,0.004 -0.229,-0.01 0.06,-0.499 -0.173,-0.855 -0.379,-1.205 0.355,-0.285 0.921,-0.173 1.061,-0.715 -0.009,-0.566 0.584,-1.486 -0.518,-1.78 -0.51,-0.253 -0.921,-1.127 -0.365,-1.52 0.01,-0.01 0.018,-0.013 0.028,-0.018 0,-0.613 -0.224,-1.36 0.384,-1.79 0.158,-0.711 0.191,-1.631 0.995,-1.972 0.004,-0.626 -0.346,-1.276 -0.056,-1.888 -0.07,-0.907 0.406,-1.743 0.555,-2.617 0.509,-0.229 0.58,-0.948 1.08,-1.131 0.369,-0.49 0.976,-0.448 1.505,-0.641 0.379,-0.27 0.757,-0.476 0.911,-0.958 0.094,-0.537 0.51,-0.995 0.995,-1.2 0.113,-0.121 0.187,-0.252 0.248,-0.332 0.519,0.032 0.888,-0.388 1.425,-0.265 0.033,0.144 0.056,0.297 0.145,0.447 l 0.266,0.776 -0.695,0.276 c -0.431,0.089 -0.72,0.397 -1.211,0.211 -0.094,0.112 -0.178,0.251 -0.337,0.41 -0.879,0.846 0.281,1.486 0.566,2.085 -0.369,0.144 -0.715,-0.192 -1.108,-0.14 -0.042,0.018 -0.098,0.032 -0.163,0.074 -0.018,0.071 -0.047,0.14 -0.018,0.234 0.046,0.043 0.092,0.107 0.129,0.169 0.184,0.228 0.165,0.461 0.146,0.77 0.607,0.141 0.977,0.752 1.612,0.865 0.037,0 0.056,-0.009 0.079,-0.019 0.183,-0.015 0.392,-0.015 0.538,0.061 -1.037,1.331 -1.467,4.056 0.649,4.463 0.393,1.611 1.22,2.836 2.697,3.785 0.135,0.57 0.196,1.042 0,1.593 -0.794,0.453 -1.771,0.416 -2.197,1.453 -0.037,0.131 -0.009,0.263 0.005,0.374 0.197,1.211 1.43,1.818 2.449,2.024 0.294,1.075 0.205,2.631 1.57,3.229 0.033,0.089 0.01,0.153 -0.009,0.23 -0.239,0.046 -0.519,-0.01 -0.673,0.228 -0.061,0.29 0.285,0.599 0.575,0.566 v 0.308 c -0.29,-0.014 -0.233,0.415 -0.575,0.332 -0.042,0.07 -0.09,0.113 -0.136,0.172 -0.252,0.734 -0.093,1.422 0,2.183 0.066,0.028 0.131,0.042 0.225,0.018 0.747,-0.528 1.695,-0.639 2.584,-0.7 0.088,0.066 0.168,0.14 0.299,0.163 0.122,0.154 0.397,0.294 0.308,0.537 -0.079,1.043 -0.032,2.066 -0.042,3.104 0.094,-0.014 0.211,-0.033 0.341,-0.061 2.776,-0.543 6.244,0.388 6.721,3.523 0,0.238 0,0.51 -0.047,0.715 -0.253,0.136 -0.65,-0.083 -0.823,0.243 -0.061,0.135 -0.103,0.295 -0.187,0.417 -0.098,0.354 0.473,0.485 0.257,0.864 l 4.117,0.691 c 0.271,0.487 0.58,0.897 0.874,1.403 1.673,2.013 3.098,3.911 4.444,6.191 0.799,1.346 1.627,1.627 1.35,3.57 -0.242,1.809 0.926,3.599 3.048,4.557 1.158,0.154 2.546,0.771 3.719,1.224 1.009,0.056 2.076,0.056 2.674,0.986 0.008,0.678 0.172,1.355 0.527,1.906 2.482,2.501 1.725,6.51 1.987,9.721 0.055,0.047 0.088,0.112 0.14,0.168 0.215,0.033 0.5,0.004 0.687,0.07 1.971,2.953 6.56,5.468 3.958,9.658 -0.131,0.025 -0.21,0.085 -0.304,0.151 -2.285,-0.538 -3.589,2.102 -5.627,2.738 -1.668,-0.121 -3.261,0.258 -4.785,0.589 -0.15,-0.093 -0.42,-0.103 -0.57,-0.14 -0.173,0.495 -0.275,1.155 -0.841,1.373 -1.042,-0.087 -1.982,0.871 -2.921,1.37 -0.448,0.085 -0.682,-0.392 -1.028,-0.571 -0.145,0.398 0.328,0.552 0.309,0.884 -0.795,0.074 -1.378,0.739 -2.215,0.551 -0.192,0.216 -0.468,0.337 -0.753,0.309 0,0.457 0.365,0.818 0.337,1.257 -1.117,0.757 -0.827,2.238 -1.378,3.332 -0.099,0.056 -0.225,0.08 -0.333,0.121 -0.612,1.094 -2.018,1.389 -3.186,1.678 -1.388,0.225 -2.487,0.126 -3.884,0.23 -0.472,0.476 -0.906,1.419 -1.733,1.191 -0.038,0.901 -1.01,1.323 -1.683,1.766 -0.275,0.837 -0.948,0.178 -1.486,0.468 0.046,0.331 -0.159,0.578 0.061,0.896 -0.566,0.702 -2.673,0.477 -2.244,1.585 -2.196,-0.322 -4.168,-0.14 -6.561,-0.098 -0.593,1.724 -3.434,1.556 -4.439,0.271 0.192,-0.411 0.425,-0.781 0.589,-1.206 -0.182,-0.252 -0.07,-0.636 -0.29,-0.879 -0.397,-0.205 -0.626,0.225 -0.869,0.459 -0.238,0.654 0.229,1.131 0.57,1.626 -0.271,0.383 -0.131,0.826 -0.533,1.135 0.243,0.22 0.575,0.309 0.809,0.552 0.018,0.074 0.028,0.144 0.047,0.206 -0.047,0.07 -0.131,0.121 -0.225,0.181 -1.453,-0.294 -2.79,-1.906 -4.481,-1.653 -1.01,-1.099 -1.281,-2.388 -2.519,-3.244 -0.103,-0.019 -0.228,0.019 -0.379,0.102 -0.033,0.024 -0.065,0.043 -0.097,0.057 -0.506,1.066 -1.782,1.575 -2.931,1.253 -0.06,-0.076 -0.112,-0.155 -0.192,-0.258 C 10.318,-9.42 8.865,-9.491 7.902,-8.351 7.481,-7.799 6.93,-7.37 6.687,-6.687 6.533,-4.804 7.173,-3.084 6.996,-1.206 5.402,0.64 2.813,-0.346 0.631,-0.323 0.481,-0.229 0.29,-0.206 0.112,-0.187 0.08,-0.117 0.028,-0.065 0,0"
             style="fill:#f4f5f5;fill-opacity:1;fill-rule:evenodd;stroke:none"
             id="path26" /></g><g
           id="g28"
           transform="translate(286.4277,263.9131)"><path
             d="m 0,0 c 0,-6.223 -3.733,-11.57 -9.071,-13.953 -0.493,27.997 -6.176,55.171 -16.976,80.815 -10.917,25.904 -26.534,49.166 -46.437,69.149 -19.893,19.972 -43.063,35.66 -68.872,46.618 -25.775,10.947 -53.092,16.666 -81.258,17.057 2.397,5.303 7.723,9.005 13.914,9.005 h 12.773 C -92.995,194.539 -11.898,111.954 0,8.317 Z m -28.242,-15.281 c -0.319,25.902 -5.523,51.035 -15.493,74.737 -9.949,23.641 -24.183,44.871 -42.315,63.1 -18.137,18.23 -39.249,32.534 -62.773,42.544 -23.825,10.128 -49.1,15.36 -75.149,15.583 v 8.238 C -112.079,187.99 -21.194,96.979 -19.846,-15.281 Z M -223.972,0 V 171.925 C -121.549,170.994 -38.354,87.607 -37.009,-15.281 H -208.7 c -8.426,0 -15.272,6.845 -15.272,15.281 M -15.275,211.729 H -208.7 c -10.099,0 -18.309,-8.206 -18.309,-18.31 V 0 c 0,-10.104 8.21,-18.318 18.309,-18.318 h 193.425 c 10.102,0 18.308,8.214 18.308,18.318 v 193.419 c 0,10.104 -8.206,18.31 -18.308,18.31"
             style="fill:#c2d62e;fill-opacity:1;fill-rule:nonzero;stroke:none"
             id="path30" /></g><g
           id="g32"
           transform="translate(344.9468,410.126)"><path
             d="m 0,0 h -31.391 l 9.759,52.563 H -7.506 L -15.622,8.931 H 1.662 Z"
             style="fill:#1b4686;fill-opacity:1;fill-rule:nonzero;stroke:none"
             id="path34" /></g><g
           id="g36"
           transform="translate(372.7373,440.9175)"><path
             d="m 0,0 c -4.425,0 -8.64,-8.415 -8.64,-17.203 0,-4.354 1.354,-6.758 3.759,-6.758 2.481,0 4.881,2.853 6.463,7.73 1.047,3.306 1.948,8.716 1.948,11.949 C 3.53,-1.724 2.101,0 0,0 m 12.541,-30.792 h -13.44 l 0.823,3.973 c -6.986,-4.205 -8.706,-4.881 -12.54,-4.881 -6.378,0 -10.293,5.481 -10.293,14.569 0,13.374 9.02,24.79 19.528,24.79 3.982,0 6.307,-1.357 8.711,-5.111 l 0.829,4.206 h 13.44 z"
             style="fill:#1b4686;fill-opacity:1;fill-rule:nonzero;stroke:none"
             id="path38" /></g><g
           id="g40"
           transform="translate(424.4854,440.9175)"><path
             d="m 0,0 h -9.088 l -2.629,-13.974 c -0.608,-3.301 -0.824,-4.81 -0.824,-5.858 0,-2.4 1.353,-3.681 3.744,-3.681 1.205,0 2.262,0.228 4.144,0.981 l 0.376,-6.611 c -3.611,-1.649 -7.959,-2.557 -12.245,-2.557 -6.536,0 -9.993,2.633 -9.993,7.658 0,1.962 0.158,1.886 1.209,7.596 L -22.313,0 h -4.654 l 1.281,6.754 h 4.805 l 1.662,9.087 13.585,2.253 -2.101,-11.34 h 9.011 z"
             style="fill:#1b4686;fill-opacity:1;fill-rule:nonzero;stroke:none"
             id="path42" /></g><g
           id="g44"
           transform="translate(439.126,450.6724)"><path
             d="m 0,0 c -3.973,0 -6.754,2.79 -6.754,6.843 0,4.502 3.538,7.954 8.107,7.954 3.829,0 6.763,-2.852 6.763,-6.682 C 8.116,3.61 4.515,0 0,0 M -1.572,-40.546 H -15.018 L -8.03,-3.001 H 5.406 Z"
             style="fill:#1b4686;fill-opacity:1;fill-rule:nonzero;stroke:none"
             id="path46" /></g><g
           id="g48"
           transform="translate(489.2207,434.3022)"><path
             d="m 0,0 -4.425,-24.176 h -13.521 l 4.057,21.918 c 0.301,1.81 0.596,3.311 0.596,3.911 0,1.957 -1.276,3.381 -2.997,3.381 -2.027,0 -4.057,-1.424 -5.562,-4.053 -1.201,-2.096 -1.953,-4.434 -2.928,-9.697 l -2.926,-15.46 h -13.449 l 7.058,37.545 h 13.446 l -1.415,-7.363 c 4.12,5.487 9.087,8.268 14.784,8.268 5.11,0 8.182,-2.633 8.182,-7.211 C 0.9,5.558 0.532,3.086 0,0"
             style="fill:#1b4686;fill-opacity:1;fill-rule:nonzero;stroke:none"
             id="path50" /></g><g
           id="g52"
           transform="translate(338.0317,374.2969)"><path
             d="M 0,0 C -3.072,-7.812 -5.321,-12.994 -8.026,-18.327 H 1.206 C 0.461,-11.717 0.162,-6.983 0,0 m 3.234,-39.279 -1.272,12.541 h -13.974 l -6.83,-12.541 h -11.94 L -1.639,13.288 H 9.087 l 8.121,-52.567 z"
             style="fill:#1b4686;fill-opacity:1;fill-rule:nonzero;stroke:none"
             id="path54" /></g><g
           id="g56"
           transform="translate(424.1084,358.6738)"><path
             d="m 0,0 -4.357,-23.656 h -13.441 l 4.054,22 c 0.757,3.914 0.676,3.914 0.676,4.506 0,1.585 -1.205,2.704 -2.773,2.704 -3.838,0 -6.763,-4.277 -8.196,-12.168 l -3.14,-17.042 h -13.606 l 4.054,22 c 0.76,3.914 0.828,3.914 0.828,4.581 0,1.51 -1.209,2.629 -2.777,2.629 -2.324,0 -4.201,-1.424 -5.716,-4.277 -1.043,-1.953 -1.943,-4.662 -2.547,-7.891 l -3.224,-17.042 h -13.442 l 7.059,37.554 h 13.441 l -1.124,-6.243 c 5.025,5.033 9.24,7.143 13.969,7.143 2.696,0 4.725,-0.675 6.154,-1.952 1.343,-1.285 2.1,-3.158 2.171,-5.563 4.811,5.182 9.321,7.515 14.279,7.515 5.558,0 8.702,-2.562 8.702,-7.362 C 1.044,5.407 0.977,5.107 0,0"
             style="fill:#1b4686;fill-opacity:1;fill-rule:nonzero;stroke:none"
             id="path58" /></g><g
           id="g60"
           transform="translate(453.5527,366.7856)"><path
             d="m 0,0 c -2.249,0 -4.135,-0.981 -5.63,-2.862 -1.201,-1.492 -2.186,-3.673 -2.862,-6.449 4.286,0 6.458,0.147 8.344,0.899 2.325,0.901 3.82,2.853 3.82,4.878 C 3.672,-1.425 2.177,0 0,0 m -6.755,-15.845 c -0.762,-0.076 -1.585,-0.076 -2.414,-0.076 v -0.826 c 0,-4.504 2.414,-7.067 6.615,-7.067 2.849,0 4.886,0.609 9.992,3.157 l 2.853,-6.014 c -8.34,-4.349 -13.53,-6.001 -19.083,-6.001 -4.578,0 -7.812,1.128 -10.359,3.838 -2.773,2.843 -4.283,6.906 -4.283,11.335 0,6.226 2.863,13.145 7.511,17.499 4.658,4.353 10.664,6.687 17.194,6.687 8.263,0 13.15,-3.686 13.15,-9.764 0,-7.52 -7.731,-12.097 -21.176,-12.768"
             style="fill:#1b4686;fill-opacity:1;fill-rule:nonzero;stroke:none"
             id="path62" /></g><g
           id="g64"
           transform="translate(499.4365,359.499)"><path
             d="m 0,0 c -1.491,0.6 -2.243,0.828 -3.448,0.828 -2.705,0 -4.816,-1.052 -6.302,-3.152 -1.285,-1.73 -2.033,-4.13 -2.934,-9.021 l -2.485,-13.136 h -13.436 l 6.977,37.554 H -8.183 L -9.684,4.81 -6.83,8.939 c 2.853,4.134 4.201,5.034 7.059,5.034 2.324,0 3.681,-0.604 6.086,-3.009 z"
             style="fill:#1b4686;fill-opacity:1;fill-rule:nonzero;stroke:none"
             id="path66" /></g><g
           id="g68"
           transform="translate(518.5928,375.5728)"><path
             d="m 0,0 c -3.986,0 -6.755,2.776 -6.755,6.83 0,4.506 3.529,7.968 8.111,7.968 3.83,0 6.75,-2.858 6.75,-6.692 C 8.106,3.601 4.505,0 0,0 M -1.577,-40.555 H -15.018 L -8.04,-3 H 5.409 Z"
             style="fill:#1b4686;fill-opacity:1;fill-rule:nonzero;stroke:none"
             id="path70" /></g><g
           id="g72"
           transform="translate(559.0664,364.228)"><path
             d="m 0,0 c -2.024,1.052 -3.968,1.577 -5.63,1.577 -6.001,0 -11.116,-6.378 -11.116,-14.046 0,-5.482 2.334,-8.787 6.31,-8.787 1.954,0 4.211,0.452 7.135,1.501 l 2.409,-6.522 c -6.238,-2.79 -10.596,-3.838 -15.621,-3.838 -9.16,0 -14.95,5.94 -14.95,15.545 0,13.003 11.264,23.814 24.709,23.814 3.982,0 6.983,-0.833 10.521,-2.709 z"
             style="fill:#1b4686;fill-opacity:1;fill-rule:nonzero;stroke:none"
             id="path74" /></g><g
           id="g76"
           transform="translate(586.418,365.8047)"><path
             d="m 0,0 c -4.443,0 -8.648,-8.401 -8.648,-17.198 0,-4.35 1.352,-6.755 3.766,-6.755 2.468,0 4.882,2.849 6.454,7.735 1.039,3.306 1.949,8.716 1.949,11.937 C 3.521,-1.724 2.105,0 0,0 m 12.541,-30.787 h -13.45 l 0.833,3.981 c -6.986,-4.21 -8.716,-4.885 -12.54,-4.885 -6.401,0 -10.293,5.486 -10.293,14.574 0,13.368 9.02,24.784 19.528,24.784 3.973,0 6.306,-1.353 8.706,-5.109 l 0.824,4.21 H 19.59 Z"
             style="fill:#1b4686;fill-opacity:1;fill-rule:nonzero;stroke:none"
             id="path78" /></g><g
           id="g80"
           transform="translate(650.6299,359.2026)"><path
             d="m 0,0 -4.438,-24.185 h -13.517 l 4.058,21.928 c 0.304,1.8 0.604,3.305 0.604,3.905 0,1.953 -1.281,3.377 -3.006,3.377 -2.024,0 -4.053,-1.424 -5.557,-4.053 -1.196,-2.096 -1.962,-4.425 -2.93,-9.687 l -2.929,-15.47 h -13.444 l 7.057,37.555 h 13.446 L -22.08,6.006 c 4.125,5.478 9.087,8.264 14.793,8.264 5.097,0 8.186,-2.629 8.186,-7.211 C 0.899,5.559 0.52,3.073 0,0"
             style="fill:#1b4686;fill-opacity:1;fill-rule:nonzero;stroke:none"
             id="path82" /></g><g
           id="g84"
           transform="translate(347.6484,301.0645)"><path
             d="m 0,0 c -3.306,1.057 -5.482,1.5 -8.411,1.5 -5.107,0 -9.084,-1.571 -11.941,-4.572 -2.924,-3.162 -4.653,-7.663 -4.653,-12.474 0,-9.23 5.854,-15.693 14.265,-15.693 1.952,0 3.752,0.223 6.077,0.904 l 2.257,-9.768 c -4.125,-1.352 -7.734,-1.961 -11.779,-1.961 -6.834,0 -12.849,2.181 -17.283,6.015 -5.182,4.505 -8.254,11.188 -8.254,19.151 0,16.521 13.069,29.219 29.958,29.219 5.406,0 9.84,-1.285 14.341,-4.211 z"
             style="fill:#1b4686;fill-opacity:1;fill-rule:nonzero;stroke:none"
             id="path86" /></g><g
           id="g88"
           transform="translate(373.3379,290.6963)"><path
             d="m 0,0 c -4.43,0 -8.64,-8.406 -8.64,-17.189 0,-4.358 1.348,-6.763 3.758,-6.763 2.472,0 4.882,2.862 6.458,7.734 1.053,3.306 1.958,8.711 1.958,11.941 C 3.534,-1.725 2.101,0 0,0 M 12.545,-30.782 H -0.9 l 0.824,3.976 c -6.987,-4.21 -8.711,-4.89 -12.541,-4.89 -6.382,0 -10.282,5.487 -10.282,14.574 0,13.369 9.006,24.785 19.518,24.785 3.972,0 6.311,-1.348 8.701,-5.105 l 0.843,4.205 h 13.444 z"
             style="fill:#1b4686;fill-opacity:1;fill-rule:nonzero;stroke:none"
             id="path90" /></g><g
           id="g92"
           transform="translate(421.0283,290.3291)"><path
             d="m 0,0 c -2.406,0 -4.807,-2.71 -6.535,-6.843 -1.644,-3.825 -2.706,-8.784 -2.706,-13.742 0.981,-2.172 2.706,-3.448 4.81,-3.448 4.279,0 8.183,7.959 8.183,16.746 C 3.752,-2.262 2.633,0 0,0 m 10.22,-25.99 c -3.457,-3.448 -7.52,-5.339 -11.354,-5.339 -3.529,0 -6.674,1.357 -9.302,4.062 l -0.677,-3.148 h -13.445 l 10.292,55.2 H -0.82 L -4.883,2.853 C 0,6.611 3.309,8.03 7.129,8.03 c 6.906,0 10.593,-5.177 10.593,-14.789 0,-7.887 -2.545,-14.273 -7.502,-19.231"
             style="fill:#1b4686;fill-opacity:1;fill-rule:nonzero;stroke:none"
             id="path94" /></g><g
           id="g96"
           transform="translate(456.5527,259.9141)"><path
             d="m 0,0 h -13.445 l 10.293,55.2 h 13.44 z"
             style="fill:#1b4686;fill-opacity:1;fill-rule:nonzero;stroke:none"
             id="path98" /></g><g
           id="g100"
           transform="translate(490.8779,291.6768)"><path
             d="m 0,0 c -2.253,0 -4.134,-0.98 -5.64,-2.848 -1.204,-1.506 -2.175,-3.681 -2.852,-6.463 4.277,0 6.454,0.153 8.345,0.905 2.329,0.895 3.824,2.853 3.824,4.878 C 3.677,-1.428 2.182,0 0,0 m -6.763,-15.846 c -0.752,-0.076 -1.577,-0.076 -2.405,-0.076 v -0.824 c 0,-4.506 2.405,-7.054 6.62,-7.054 2.843,0 4.867,0.596 9.983,3.15 l 2.848,-6.011 c -8.335,-4.359 -13.516,-6.016 -19.07,-6.016 -4.586,0 -7.812,1.129 -10.364,3.843 -2.777,2.849 -4.282,6.901 -4.282,11.341 0,6.229 2.857,13.139 7.502,17.493 4.658,4.354 10.672,6.683 17.203,6.683 8.263,0 13.145,-3.677 13.145,-9.759 0,-7.512 -7.73,-12.093 -21.18,-12.77"
             style="fill:#1b4686;fill-opacity:1;fill-rule:nonzero;stroke:none"
             id="path102" /></g><g
           id="g104"
           transform="translate(247.5645,434.3882)"><path
             d="m 0,0 c -3.217,0 -5.848,2.631 -5.848,5.848 0,3.216 2.631,5.848 5.848,5.848 3.216,0 5.848,-2.632 5.848,-5.848 C 5.848,2.631 3.216,0 0,0 M 23.484,-12.398 9.676,1.419 c 0.624,1.352 0.981,2.849 0.981,4.429 0,1.636 -0.385,3.184 -1.051,4.573 l 5.298,4.752 c 1.524,1.36 1.673,3.711 0.31,5.239 -1.365,1.532 -3.702,1.672 -5.23,0.303 L 4.272,15.603 c -1.311,0.579 -2.755,0.907 -4.274,0.907 -1.583,0 -3.083,-0.36 -4.436,-0.986 l -13.808,13.804 c -1.444,1.444 -3.795,1.444 -5.234,0 -1.458,-1.444 -1.458,-3.79 0,-5.244 L -9.68,10.28 c -0.624,-1.353 -0.982,-2.851 -0.982,-4.432 0,-5.864 4.797,-10.662 10.66,-10.662 1.583,0 3.084,0.359 4.439,0.986 l 13.805,-13.809 c 0.723,-0.724 1.681,-1.093 2.621,-1.093 0.949,0 1.897,0.369 2.621,1.093 1.454,1.44 1.454,3.795 0,5.239"
             style="fill:#ffffff;fill-opacity:1;fill-rule:nonzero;stroke:none"
             id="path106" /></g></g></g></g></svg>
