<?xml version="1.0" encoding="UTF-8"?>
<svg xmlns="http://www.w3.org/2000/svg" version="1.1" xmlns:cc="http://creativecommons.org/ns#" xmlns:dc="http://purl.org/dc/elements/1.1/" xmlns:inkscape="http://www.inkscape.org/namespaces/inkscape" xmlns:rdf="http://www.w3.org/1999/02/22-rdf-syntax-ns#" xmlns:sodipodi="http://sodipodi.sourceforge.net/DTD/sodipodi-0.dtd" xmlns:svg="http://www.w3.org/2000/svg" viewBox="0 0 512 512">
  <defs>
    <style>
      .cls-1 {
        fill: #f2f2f2;
      }
    </style>
  </defs>
  <!-- Generator: Adobe Illustrator 28.6.0, SVG Export Plug-In . SVG Version: 1.2.0 Build 709)  -->
  <g>
    <g id="svg4" focusable="false">
      <sodipodi:namedview id="namedview6" bordercolor="#666666" borderopacity="1" gridtolerance="10" guidetolerance="10" inkscape:current-layer="svg4" inkscape:cx="256" inkscape:cy="256" inkscape:pageopacity="0" inkscape:pageshadow="2" inkscape:window-height="863" inkscape:window-maximized="1" inkscape:window-width="1600" inkscape:window-x="0" inkscape:window-y="0" inkscape:zoom="1.3090781" objecttolerance="10" pagecolor="#ffffff" showgrid="false"/>
      <path class="cls-1" d="M400.5,64c26,0,48,22,48,48v352c0,27-22,48-48,48H112.5c-27,0-48-21-48-48V112c0-26,21-48,48-48h80C192.5,29,220.5,0,256.5,0s64,29,64,64h80ZM256.5,40c-14,0-24,11-24,24s10,24,24,24,24-10,24-24-11-24-24-24ZM377.5,272c4-4,5-12,0-17l-28-28c-5-5-13-5-17,0l-106,105-46-46c-5-5-13-5-17-1l-29,29c-4,4-5,12,0,17l83,83c4,5,12,5,17,0l143-142Z"/>
    </g>
  </g>
</svg>