<?xml version="1.0" encoding="UTF-8"?>
<svg xmlns="http://www.w3.org/2000/svg" version="1.1" xmlns:cc="http://creativecommons.org/ns#" xmlns:dc="http://purl.org/dc/elements/1.1/" xmlns:inkscape="http://www.inkscape.org/namespaces/inkscape" xmlns:rdf="http://www.w3.org/1999/02/22-rdf-syntax-ns#" xmlns:sodipodi="http://sodipodi.sourceforge.net/DTD/sodipodi-0.dtd" xmlns:svg="http://www.w3.org/2000/svg" viewBox="0 0 512 512">
  <defs>
    <style>
      .cls-1 {
        fill: #f2f2f2;
      }
    </style>
  </defs>
  <!-- Generator: Adobe Illustrator 28.6.0, SVG Export Plug-In . SVG Version: 1.2.0 Build 709)  -->
  <g>
    <g id="svg4" focusable="false">
      <sodipodi:namedview id="namedview6" bordercolor="#666666" borderopacity="1" gridtolerance="10" guidetolerance="10" inkscape:current-layer="svg4" inkscape:cx="256" inkscape:cy="256" inkscape:pageopacity="0" inkscape:pageshadow="2" inkscape:window-height="863" inkscape:window-maximized="1" inkscape:window-width="1600" inkscape:window-x="0" inkscape:window-y="0" inkscape:zoom="1.3090781" objecttolerance="10" pagecolor="#ffffff" showgrid="false"/>
      <path class="cls-1" d="M432,256c26,0,48,22,48,48v160c0,27-22,48-48,48H80c-27,0-48-21-48-48v-160c0-26,21-48,48-48h24v-102C104,70,171,1,255,0c84,0,153,68,153,152v16c0,14-11,24-24,24h-32c-14,0-24-10-24-24v-16c0-39-33-72-73-72-40,1-71,34-71,73v103h248ZM296,408v-48c0-22-18-40-40-40s-40,18-40,40v48c0,23,17,40,40,40s40-17,40-40Z"/>
    </g>
  </g>
</svg>