<?xml version="1.0" encoding="UTF-8"?>
<svg version="1.1" xmlns="http://www.w3.org/2000/svg" width="160" height="160">
<path d="M0 0 C4.95 -0.0825 9.9 -0.165 15 -0.25 C17.31837891 -0.30462402 17.31837891 -0.30462402 19.68359375 -0.36035156 C28.40711948 -0.43070258 34.79107481 -0.098164 41.375 6.3125 C45.08117803 12.44194828 45.67264797 18.15183984 44 25 C41.75614845 30.65406158 38.17744449 34.05253402 33.0625 37.1875 C30.42349509 38.227108 27.79534805 38.56263262 25 39 C25.79921875 39.61746094 26.5984375 40.23492187 27.421875 40.87109375 C27.94539551 41.27658447 28.46891602 41.6820752 29.00830078 42.09985352 C30.18785409 43.00576501 31.37397667 43.90317552 32.56591797 44.79272461 C35.44649389 46.95448839 38.05388962 49.05486647 40.5859375 51.6328125 C50.56758705 61.1844833 63.99263181 59.23161268 77 59 C77 54.05 77 49.1 77 44 C67.43 44 57.86 44 48 44 C48 35.00453515 48 35.00453515 50.38671875 32.31640625 C50.9070166 31.70692139 51.42731445 31.09743652 51.96337891 30.46948242 C52.53233887 29.84017822 53.10129883 29.21087402 53.6875 28.5625 C54.87891122 27.17671808 56.06762621 25.78861442 57.25390625 24.3984375 C57.87023926 23.68397461 58.48657227 22.96951172 59.12158203 22.23339844 C62.85338186 17.79636895 66.28941416 13.12923453 69.7722168 8.49633789 C70.28308838 7.82078857 70.79395996 7.14523926 71.3203125 6.44921875 C71.76648926 5.85455811 72.21266602 5.25989746 72.67236328 4.6472168 C73.1104834 4.10363525 73.54860352 3.56005371 74 3 C74.40589355 2.43385986 74.81178711 1.86771973 75.22998047 1.28442383 C77 0 77 0 84 0 C84 12.21 84 24.42 84 37 C87.96 37 91.92 37 96 37 C97.32 37.99 98.64 38.98 100 40 C100 40.66 100 41.32 100 42 C95.0754853 45.2830098 89.82305673 44.11530805 84 44 C84 51.26 84 58.52 84 66 C78.96271138 66.23189564 73.94441898 66.42995667 68.90600586 66.54931641 C67.19963385 66.59911169 65.49367735 66.66698278 63.78881836 66.75439453 C53.543179 67.26592425 46.2649053 66.99052188 38.32162476 60.05604553 C36.86746586 58.71868732 35.43331778 57.359671 34 56 C32.32754225 54.66801744 30.63996455 53.35465745 28.93359375 52.06640625 C27.4346037 50.89881246 25.93589757 49.73085405 24.4375 48.5625 C22.91562156 47.3759724 21.39349511 46.18976283 19.87109375 45.00390625 C18.89547485 44.24315796 18.89547485 44.24315796 17.90014648 43.46704102 C15.98372987 41.94810437 15.98372987 41.94810437 13.77368164 40.54272461 C13.1883667 40.03362549 12.60305176 39.52452637 12 39 C11.75 35.3125 11.75 35.3125 12 32 C13.08539063 31.90203125 14.17078125 31.8040625 15.2890625 31.703125 C16.73446565 31.55295324 18.17977353 31.40186268 19.625 31.25 C20.33785156 31.188125 21.05070312 31.12625 21.78515625 31.0625 C26.79217659 30.5112684 30.00191434 29.27170674 34 26 C36.39610368 22.03145327 37.11063127 19.93246354 36.5625 15.3125 C34.99516849 11.25160872 34.99516849 11.25160872 29 8 C21.74 7.67 14.48 7.34 7 7 C7 23.83 7 40.66 7 58 C4.69 58 2.38 58 0 58 C0 38.86 0 19.72 0 0 Z M76 13 C73.80326517 15.40120419 71.798416 17.97197676 69.75 20.5 C69.17636719 21.19609375 68.60273437 21.8921875 68.01171875 22.609375 C67.44582031 23.30546875 66.87992188 24.0015625 66.296875 24.71875 C65.78479492 25.34716797 65.27271484 25.97558594 64.74511719 26.62304688 C62.30361053 29.94852377 60.1865107 33.50158289 58 37 C64.27 37 70.54 37 77 37 C77 29.08 77 21.16 77 13 C76.67 13 76.34 13 76 13 Z " fill="#404041" transform="translate(34,47)"/>
<path d="M0 0 C0 12.21 0 24.42 0 37 C3.96 37 7.92 37 12 37 C13.32 37.99 14.64 38.98 16 40 C16 40.66 16 41.32 16 42 C12.75715221 44.16189853 11.89903779 44.24626755 8.16137695 44.22705078 C6.69019157 44.22682419 6.69019157 44.22682419 5.18928528 44.22659302 C4.13295395 44.21627045 3.07662262 44.20594788 1.98828125 44.1953125 C0.90491989 44.1924826 -0.17844147 44.18965271 -1.29463196 44.18673706 C-4.75903308 44.17553091 -8.22317685 44.15042534 -11.6875 44.125 C-14.03450148 44.11497077 -16.381507 44.10584482 -18.72851562 44.09765625 C-24.48576507 44.07559016 -30.24286415 44.04210827 -36 44 C-36.34076348 35.38833242 -36.34076348 35.38833242 -33.61328125 32.31640625 C-32.83283447 31.40217896 -32.83283447 31.40217896 -32.03662109 30.46948242 C-31.46766113 29.84017822 -30.89870117 29.21087402 -30.3125 28.5625 C-29.12108878 27.17671808 -27.93237379 25.78861442 -26.74609375 24.3984375 C-26.12976074 23.68397461 -25.51342773 22.96951172 -24.87841797 22.23339844 C-21.14661814 17.79636895 -17.71058584 13.12923453 -14.2277832 8.49633789 C-13.71691162 7.82078857 -13.20604004 7.14523926 -12.6796875 6.44921875 C-12.23351074 5.85455811 -11.78733398 5.25989746 -11.32763672 4.6472168 C-10.8895166 4.10363525 -10.45139648 3.56005371 -10 3 C-9.59410645 2.43385986 -9.18821289 1.86771973 -8.77001953 1.28442383 C-7 0 -7 0 0 0 Z M-8 13 C-10.19673483 15.40120419 -12.201584 17.97197676 -14.25 20.5 C-14.82363281 21.19609375 -15.39726563 21.8921875 -15.98828125 22.609375 C-16.55417969 23.30546875 -17.12007812 24.0015625 -17.703125 24.71875 C-18.21520508 25.34716797 -18.72728516 25.97558594 -19.25488281 26.62304688 C-21.69638947 29.94852377 -23.8134893 33.50158289 -26 37 C-19.73 37 -13.46 37 -7 37 C-7 29.08 -7 21.16 -7 13 C-7.33 13 -7.66 13 -8 13 Z " fill="#404040" transform="translate(118,47)"/>
<path d="M0 0 C0.84342453 -0.00570007 1.68684906 -0.01140015 2.55583191 -0.01727295 C4.3213071 -0.02664261 6.08679914 -0.03322454 7.85229492 -0.03710938 C10.55352466 -0.04691331 13.25402309 -0.07804991 15.95507812 -0.109375 C17.67838094 -0.1158974 19.40168914 -0.12115085 21.125 -0.125 C21.92919876 -0.1373468 22.73339752 -0.1496936 23.56196594 -0.16241455 C26.90677413 -0.14905639 29.30671681 -0.02988761 32.26831055 1.59863281 C33.73046875 3.203125 33.73046875 3.203125 33.73046875 5.203125 C30.48762096 7.36502353 29.62950654 7.44939255 25.8918457 7.43017578 C24.42066032 7.42994919 24.42066032 7.42994919 22.91975403 7.42971802 C21.8634227 7.41939545 20.80709137 7.40907288 19.71875 7.3984375 C18.63538864 7.3956076 17.55202728 7.39277771 16.43583679 7.38986206 C12.97143567 7.37865591 9.5072919 7.35355034 6.04296875 7.328125 C3.69596727 7.31809577 1.34896175 7.30896982 -0.99804688 7.30078125 C-6.75529632 7.27871516 -12.5123954 7.24523327 -18.26953125 7.203125 C-18.26953125 5.223125 -18.26953125 3.243125 -18.26953125 1.203125 C-12.14889078 0.44238035 -6.16484878 0.03299407 0 0 Z " fill="#FB5000" transform="translate(100.26953125,83.796875)"/>
</svg>
