<svg width="29" height="24" viewBox="0 0 29 24" fill="none" xmlns="http://www.w3.org/2000/svg">
<path d="M10.1875 11.875C6.99805 11.875 4.4375 9.31445 4.4375 6.125C4.4375 2.98047 6.99805 0.375 10.1875 0.375C13.332 0.375 15.9375 2.98047 15.9375 6.125C15.9375 9.31445 13.332 11.875 10.1875 11.875ZM14.1855 13.3125C17.5098 13.3125 20.25 16.0527 20.25 19.377V21.2188C20.25 22.4316 19.2617 23.375 18.0938 23.375H2.28125C1.06836 23.375 0.125 22.4316 0.125 21.2188V19.377C0.125 16.0527 2.82031 13.3125 6.14453 13.3125H6.9082C7.89648 13.8066 9.01953 14.0312 10.1875 14.0312C11.3555 14.0312 12.4336 13.8066 13.4219 13.3125H14.1855ZM28.6953 7.5625C28.9199 7.78711 28.9199 8.10156 28.6953 8.32617L22.3613 14.6152C22.1367 14.8398 21.8223 14.8398 21.5977 14.6152L17.9141 10.9316C17.7344 10.707 17.7344 10.3477 17.9141 10.168L19.1719 8.91016C19.3965 8.68555 19.7559 8.68555 19.9355 8.91016L22.002 10.9766L26.7188 6.30469C26.8984 6.08008 27.2578 6.08008 27.4375 6.30469L28.6953 7.5625Z" fill="#1B4686"/>
</svg>
