<?xml version="1.0" encoding="utf-8"?>
<!-- Generator: Adobe Illustrator 22.1.0, SVG Export Plug-In . SVG Version: 6.00 Build 0)  -->
<svg version="1.1"
	 id="svg14" focusable="false" inkscape:version="1.0.2 (e86c870879, 2021-01-15)" sodipodi:docname="instagram.svg" xmlns:cc="http://creativecommons.org/ns#" xmlns:dc="http://purl.org/dc/elements/1.1/" xmlns:inkscape="http://www.inkscape.org/namespaces/inkscape" xmlns:rdf="http://www.w3.org/1999/02/22-rdf-syntax-ns#" xmlns:sodipodi="http://sodipodi.sourceforge.net/DTD/sodipodi-0.dtd" xmlns:svg="http://www.w3.org/2000/svg"
	 xmlns="http://www.w3.org/2000/svg" xmlns:xlink="http://www.w3.org/1999/xlink" x="0px" y="0px" viewBox="0 0 448 448"
	 style="enable-background:new 0 0 448 448;" xml:space="preserve">
<style type="text/css">
	.st0{fill:#C2D62E;}
</style>
<sodipodi:namedview  bordercolor="#666666" borderopacity="1" gridtolerance="10" guidetolerance="10" id="namedview16" inkscape:current-layer="svg14" inkscape:cx="224" inkscape:cy="256" inkscape:pageopacity="0" inkscape:pageshadow="2" inkscape:window-height="863" inkscape:window-maximized="1" inkscape:window-width="1600" inkscape:window-x="0" inkscape:window-y="0" inkscape:zoom="1.3092537" objecttolerance="10" pagecolor="#ffffff" showgrid="false">
	</sodipodi:namedview>
<path class="st0" d="M381.9,65.1C340,23.1,284.2,0,224.9,0C102.5,0,2.9,99.6,2.9,222c0,39.1,10.2,77.3,29.6,111L1,448l117.7-30.9
	c32.4,17.7,68.9,27,106.1,27h0.1c122.3,0,224.1-99.6,224.1-222C449,162.8,423.8,107.1,381.9,65.1z M224.9,406.7
	c-33.2,0-65.7-8.9-94-25.7l-6.7-4l-69.8,18.3L73,327.2l-4.4-7c-18.5-29.4-28.2-63.3-28.2-98.2c0-101.7,82.8-184.5,184.6-184.5
	c49.3,0,95.6,19.2,130.4,54.1s56.2,81.2,56.1,130.5C411.5,323.9,326.6,406.7,224.9,406.7z M326.1,268.5c-5.5-2.8-32.8-16.2-37.9-18
	c-5.1-1.9-8.8-2.8-12.5,2.8c-3.7,5.6-14.3,18-17.6,21.8c-3.2,3.7-6.5,4.2-12,1.4c-32.6-16.3-54-29.1-75.5-66
	c-5.7-9.8,5.7-9.1,16.3-30.3c1.8-3.7,0.9-6.9-0.5-9.7s-12.5-30.1-17.1-41.2c-4.5-10.8-9.1-9.3-12.5-9.5c-3.2-0.2-6.9-0.2-10.6-0.2
	c-3.7,0-9.7,1.4-14.8,6.9c-5.1,5.6-19.4,19-19.4,46.3s19.9,53.7,22.6,57.4c2.8,3.7,39.1,59.7,94.8,83.8c35.2,15.2,49,16.5,66.6,13.9
	c10.7-1.6,32.8-13.4,37.4-26.4s4.6-24.1,3.2-26.4C335.3,272.6,331.6,271.2,326.1,268.5z"/>
</svg>
