<svg width="77" height="78" viewBox="0 0 77 78" fill="none" xmlns="http://www.w3.org/2000/svg">
<mask id="mask0_110_112" style="mask-type:luminance" maskUnits="userSpaceOnUse" x="4" y="4" width="70" height="70">
<path d="M38.7333 73.4118C57.7249 73.4118 73.1207 57.8913 73.1207 38.7459C73.1207 19.6005 57.7249 4.08008 38.7333 4.08008C19.7417 4.08008 4.34595 19.6005 4.34595 38.7459C4.34595 57.8913 19.7417 73.4118 38.7333 73.4118Z" fill="white"/>
</mask>
<g mask="url(#mask0_110_112)">
<g opacity="0.5">
<mask id="mask1_110_112" style="mask-type:luminance" maskUnits="userSpaceOnUse" x="-26" y="-58" width="202" height="190">
<path d="M175.188 -57.3389H-25.4321V131.24H175.188V-57.3389Z" fill="white"/>
</mask>
<g mask="url(#mask1_110_112)">
<g opacity="0.6">
<mask id="mask2_110_112" style="mask-type:luminance" maskUnits="userSpaceOnUse" x="-26" y="-58" width="202" height="190">
<path d="M175.188 -57.3389H-25.4321V131.24H175.188V-57.3389Z" fill="white"/>
</mask>
<g mask="url(#mask2_110_112)">
<path d="M72.3812 39.9272C72.3044 40.4746 72.3812 41.0507 72.6213 41.5789C73.0726 42.568 73.9849 43.2209 75.07 43.3362L89.0419 44.719C90.127 44.8246 91.1449 44.3637 91.7787 43.4802C92.4125 42.5968 92.5277 41.4732 92.0764 40.4842L86.2955 27.6933C85.8442 26.7043 84.932 26.0513 83.8469 25.936C82.7617 25.8304 81.7343 26.2913 81.1005 27.1748L72.9189 38.5828C72.6213 38.9957 72.4388 39.4471 72.3812 39.9272ZM92.0572 42.0974C91.9996 42.5295 91.8363 42.9521 91.5674 43.3266C90.9913 44.1332 90.0502 44.5557 89.0707 44.4597L75.0988 43.0769C74.1097 42.9809 73.2743 42.3759 72.8709 41.4732C72.458 40.5706 72.5637 39.5527 73.1398 38.7461L81.3213 27.338C81.8975 26.5314 82.8386 26.1089 83.818 26.2049C84.8071 26.3009 85.6426 26.8963 86.0459 27.8086L91.8267 40.5994C92.0476 41.0891 92.1148 41.6077 92.0476 42.107" fill="#E4E4E4"/>
<path d="M71.2001 40.4551C71.1137 41.0601 71.2001 41.6939 71.469 42.2797C71.9683 43.3744 72.9766 44.1042 74.177 44.2194L89.695 45.7558C90.8953 45.8711 92.0284 45.3621 92.7294 44.3827C93.4304 43.4032 93.5553 42.1644 93.0559 41.0697L86.6317 26.8577C86.1323 25.763 85.1241 25.0332 83.9237 24.9179C82.7234 24.8027 81.5903 25.3116 80.8893 26.2911L71.7955 38.9667C71.469 39.418 71.2673 39.927 71.2001 40.4551ZM93.0655 42.8654C92.9983 43.3456 92.8158 43.8161 92.5182 44.229C91.8748 45.1317 90.8281 45.6022 89.7238 45.487L74.2058 43.9505C73.1015 43.8449 72.17 43.1727 71.7187 42.1644C71.2577 41.1561 71.373 40.0134 72.0259 39.1108L81.1197 26.4352C81.7631 25.5325 82.8098 25.062 83.9141 25.1676C85.0184 25.2732 85.9499 25.9454 86.4012 26.9537L92.8255 41.1657C93.0751 41.7035 93.1519 42.2893 93.0751 42.8462" fill="#E4E4E4"/>
<path d="M69.8845 41.0507C69.7885 41.7229 69.8845 42.4239 70.1822 43.0769C70.7295 44.2868 71.8531 45.0935 73.1782 45.2279L90.4247 46.9372C91.7499 47.0716 93.0079 46.5051 93.7857 45.4199C94.5635 44.3348 94.6979 42.9713 94.1506 41.7517L87.0062 25.9648C86.4588 24.7549 85.3353 23.9483 84.0101 23.8138C82.6849 23.6794 81.427 24.2459 80.6492 25.331L70.5471 39.4086C70.1918 39.908 69.9613 40.4745 69.8845 41.0507ZM80.8604 25.4847C81.5806 24.4764 82.7425 23.9579 83.9717 24.0731C85.2008 24.1979 86.2379 24.9373 86.7469 26.0705L93.8913 41.8573C94.4003 42.9809 94.2754 44.258 93.5552 45.2567C92.835 46.265 91.6731 46.7835 90.4439 46.6683L73.1974 44.959C71.9683 44.8342 70.9312 44.0948 70.4222 42.9616C69.9133 41.8381 70.0381 40.561 70.7583 39.5623L80.8604 25.4847Z" fill="#E4E4E4"/>
<path d="M68.425 41.7037C68.3193 42.4527 68.425 43.2209 68.7515 43.9411C69.3564 45.2855 70.5952 46.1785 72.0644 46.3226L91.2218 48.2239C92.6911 48.368 94.0738 47.7438 94.9381 46.5434C95.7927 45.3431 95.9464 43.8259 95.3414 42.4815L87.4096 24.9373C86.8046 23.5929 85.5658 22.7095 84.0966 22.5558C82.6274 22.4118 81.2446 23.036 80.3804 24.2363L69.1548 39.8791C68.7611 40.4361 68.5114 41.0603 68.425 41.6941M80.6012 24.3803C81.4078 23.2568 82.7042 22.6711 84.0774 22.8055C85.4506 22.9399 86.6125 23.7754 87.1791 25.0333L95.1109 42.5775C95.6775 43.8355 95.5431 45.2567 94.7364 46.3706C93.9298 47.4941 92.6334 48.0799 91.2602 47.9454L72.1028 46.0441C70.7296 45.9097 69.5677 45.0742 69.0011 43.8163C68.4346 42.5583 68.569 41.1371 69.3756 40.0232L80.6012 24.3803Z" fill="#E4E4E4"/>
<path d="M66.8021 42.4334C66.6868 43.2593 66.8021 44.1139 67.167 44.9109C67.8392 46.3994 69.2124 47.3788 70.8352 47.5421L92.1245 49.6547C93.7473 49.8179 95.2838 49.1169 96.244 47.7918C97.1947 46.4666 97.3579 44.7861 96.6858 43.2977L87.8705 23.8041C87.1983 22.3157 85.8251 21.3362 84.2022 21.173C82.5793 21.0097 81.0429 21.7107 80.0826 23.0359L67.6087 40.4169C67.167 41.0314 66.8981 41.7228 66.7925 42.4334M80.2939 23.1896C81.187 21.9412 82.637 21.2882 84.1638 21.4323C85.6906 21.5859 86.987 22.5078 87.6208 23.9098L96.4361 43.4033C97.0699 44.8053 96.9162 46.3897 96.0136 47.6381C95.1205 48.8865 93.6705 49.5394 92.1437 49.3858L70.8544 47.2732C69.3276 47.1196 68.0312 46.1977 67.3974 44.7957C66.7637 43.3937 66.9173 41.8092 67.82 40.5609L80.2939 23.18V23.1896Z" fill="#E4E4E4"/>
<path d="M64.9967 43.2495C64.8719 44.1618 64.9967 45.1125 65.4 45.9959C66.149 47.6476 67.6662 48.7327 69.462 48.9151L93.1135 51.2582C94.9092 51.4407 96.6185 50.6628 97.6748 49.1936C98.7311 47.7244 98.9135 45.8615 98.1645 44.2098L88.3697 22.5461C87.6207 20.8944 86.1035 19.8093 84.3078 19.6268C82.5121 19.4444 80.8028 20.2222 79.7465 21.6914L65.8897 41.0025C65.4 41.6843 65.1023 42.4429 64.9871 43.2399M98.3086 46.9178C98.2029 47.6668 97.9148 48.387 97.4539 49.0304C96.4552 50.4228 94.842 51.1526 93.1327 50.9797L69.4812 48.6367C67.7719 48.4638 66.3411 47.4363 65.6305 45.8711C64.9199 44.3058 65.1023 42.5485 66.101 41.1561L79.9577 21.845C80.9564 20.4527 82.5697 19.7228 84.279 19.8957C85.9883 20.0685 87.4191 21.096 88.1297 22.6613L97.9244 44.325C98.299 45.1605 98.4334 46.0631 98.3086 46.9274" fill="#E4E4E4"/>
<path d="M62.9896 44.1522C62.8456 45.1701 62.9896 46.2168 63.441 47.1963C64.2668 49.0208 65.9473 50.2308 67.9446 50.4324L94.2273 53.0348C96.2247 53.2364 98.1164 52.3818 99.2783 50.7493C100.45 49.1169 100.652 47.0619 99.8257 45.2277L88.9362 21.1633C88.1104 19.3388 86.4299 18.1288 84.4325 17.9272C82.4352 17.7255 80.553 18.5802 79.3815 20.2126L63.9787 41.6747C63.441 42.4334 63.1049 43.2784 62.98 44.1522M100.008 48.243C99.8929 49.0784 99.576 49.8851 99.0575 50.5957C97.9436 52.1513 96.1478 52.9579 94.2465 52.7755L67.9638 50.1732C66.0625 49.9811 64.4588 48.8384 63.6714 47.0907C62.884 45.3526 63.0761 43.384 64.19 41.838L79.5927 20.3759C80.7067 18.8202 82.5024 18.0136 84.4037 18.1961C86.305 18.3881 87.9087 19.5309 88.6961 21.2785L99.5856 45.343C100.008 46.2744 100.152 47.2731 100.018 48.243" fill="#E4E4E4"/>
<path d="M60.7616 45.1511C60.608 46.2746 60.7616 47.4365 61.261 48.5216C62.1732 50.5478 64.0458 51.8826 66.2544 52.1035L95.4563 55.0035C97.6649 55.2243 99.7583 54.2737 101.055 52.4684C102.351 50.663 102.582 48.3776 101.66 46.3514L89.5698 19.6078C88.6575 17.5816 86.785 16.2469 84.5764 16.026C82.3678 15.8051 80.2744 16.7558 78.978 18.5611L61.8659 42.4047C61.261 43.2401 60.8961 44.1812 60.7616 45.1511ZM101.9 49.6932C101.775 50.615 101.42 51.5177 100.843 52.3147C99.6047 54.0432 97.5977 54.9459 95.4851 54.7346L66.2832 51.8346C64.1706 51.6233 62.3749 50.3462 61.501 48.4064C60.6272 46.4667 60.8384 44.2772 62.0772 42.5487L79.1892 18.7052C80.428 16.9767 82.435 16.074 84.5476 16.2853C86.6602 16.4965 88.4463 17.7737 89.3297 19.7134L101.429 46.457C101.9 47.4941 102.053 48.6081 101.909 49.6836" fill="#E4E4E4"/>
<path d="M58.2842 46.2649C58.1114 47.5132 58.2842 48.8 58.8412 50.01C59.859 52.257 61.9236 53.7358 64.3819 53.9855L96.8295 57.2024C99.2782 57.4425 101.602 56.3958 103.043 54.3888C104.483 52.3914 104.733 49.8563 103.715 47.6093L90.2805 17.8984C89.2626 15.6514 87.198 14.1726 84.7397 13.9229C82.291 13.6828 79.9672 14.7295 78.5268 16.7269L59.5133 43.2208C58.8508 44.1427 58.4378 45.1894 58.2842 46.2649ZM78.738 16.8805C80.1208 14.96 82.3486 13.9421 84.7109 14.1822C87.0636 14.4127 89.0609 15.8435 90.0308 18.0041L103.465 47.7149C104.445 49.8755 104.195 52.305 102.822 54.2352C101.439 56.1557 99.211 57.164 96.8488 56.9335L64.4011 53.7166C62.0485 53.4861 60.0511 52.0553 59.0812 49.8947C58.1018 47.7341 58.3514 45.3046 59.7246 43.3745L78.738 16.8805Z" fill="#E4E4E4"/>
<path d="M55.538 47.5036C55.3459 48.8864 55.538 50.3172 56.1526 51.652C57.2761 54.1391 59.5711 55.7908 62.2887 56.0597L98.3469 59.6319C101.065 59.9008 103.638 58.7388 105.232 56.5206C106.826 54.3024 107.105 51.4888 105.981 49.0017L91.0489 15.9875C89.9254 13.5004 87.6303 11.8487 84.9031 11.5798C82.1856 11.311 79.612 12.4729 78.018 14.6911L56.892 44.1331C56.1526 45.1606 55.7012 46.3129 55.538 47.5036ZM78.2388 14.8448C79.7753 12.7034 82.2624 11.5798 84.8839 11.8391C87.5055 12.0984 89.7237 13.6924 90.8088 16.0931L105.741 49.1073C106.826 51.508 106.557 54.2256 105.021 56.367C103.484 58.5084 100.997 59.6319 98.3757 59.3726L62.3175 55.8004C59.696 55.5411 57.4777 53.9471 56.3926 51.5464C55.3075 49.1457 55.5764 46.4281 57.1128 44.2867L78.2388 14.8448Z" fill="#E4E4E4"/>
<path d="M52.4842 48.8769C52.273 50.4133 52.4842 51.9978 53.166 53.4766C54.4144 56.2422 56.9591 58.0667 59.9744 58.3644L100.037 62.3399C103.052 62.6376 105.904 61.3508 107.671 58.8829C109.438 56.4246 109.745 53.3037 108.497 50.5382L91.9034 13.8557C90.6551 11.0901 88.1104 9.26563 85.0951 8.96795C82.0799 8.67026 79.2278 9.95703 77.4609 12.4249L53.9919 45.1318C53.1756 46.2745 52.6667 47.5517 52.4842 48.8673M108.919 55.0994C108.747 56.3766 108.257 57.6154 107.46 58.7197C105.751 61.1012 102.985 62.3591 100.066 62.0614L60.0032 58.0859C57.084 57.7978 54.6161 56.0309 53.4061 53.3517C52.1962 50.6822 52.4939 47.6573 54.2031 45.2759L77.6722 12.569C79.3815 10.1875 82.1471 8.92953 85.0663 9.22722C87.9855 9.5153 90.4534 11.2822 91.6634 13.9614L108.257 50.6438C108.91 52.0842 109.121 53.6206 108.91 55.0994" fill="#E4E4E4"/>
<path d="M49.0849 50.4038C48.8449 52.1034 49.0849 53.8607 49.834 55.5124C51.2167 58.5757 54.04 60.6019 57.3913 60.9379L101.9 65.3552C105.242 65.6913 108.411 64.2509 110.37 61.5237C112.329 58.7965 112.674 55.33 111.291 52.2667L92.8542 11.5127C91.4714 8.44944 88.6482 6.42327 85.2968 6.08717C81.9551 5.75108 78.7862 7.19149 76.8272 9.91866L50.7462 46.265C49.834 47.5325 49.277 48.9537 49.0753 50.4134M111.781 57.3369C111.579 58.7581 111.042 60.1409 110.158 61.3701C108.257 64.0204 105.174 65.4128 101.929 65.0959L57.4201 60.6787C54.1744 60.3522 51.428 58.3836 50.0836 55.4068C48.7392 52.4299 49.0753 49.069 50.9767 46.4186L77.0577 10.0723C78.959 7.42195 82.0415 6.02956 85.2872 6.34645C88.5426 6.67294 91.2793 8.64149 92.6237 11.6183L111.061 52.3723C111.781 53.9664 112.021 55.6853 111.791 57.3273" fill="#E4E4E4"/>
<path d="M45.3113 52.1033C45.0521 53.9854 45.321 55.9444 46.1468 57.7689C47.6832 61.1683 50.8137 63.4153 54.53 63.7802L103.984 68.6872C107.7 69.0521 111.215 67.4677 113.385 64.4332C115.555 61.3987 115.939 57.5673 114.403 54.1679L93.9204 8.88143C92.3839 5.48207 89.2534 3.23503 85.5372 2.87013C81.8209 2.50523 78.3063 4.08967 76.1361 7.12413L47.1551 47.5036C46.1468 48.9056 45.5226 50.4804 45.3017 52.1033M76.3474 7.27778C78.4696 4.32014 81.8881 2.7741 85.5084 3.139C89.1286 3.4943 92.1823 5.69333 93.6803 8.99667L114.163 54.2831C115.661 57.5961 115.286 61.3315 113.174 64.2892C111.052 67.2468 107.633 68.7929 104.013 68.4279L54.5588 63.521C50.9385 63.1657 47.8849 60.9762 46.3869 57.6633C44.8888 54.3503 45.2633 50.6149 47.3759 47.6572L76.357 7.27778H76.3474Z" fill="#E4E4E4"/>
<path d="M41.1147 53.9854C40.8266 56.0788 41.1243 58.249 42.0462 60.2752C43.7555 64.0491 47.2317 66.5458 51.3512 66.9491L106.308 72.3939C110.427 72.8068 114.326 71.0399 116.736 67.6789C119.146 64.318 119.569 60.0544 117.869 56.2805L95.1109 5.96219C93.4016 2.18832 89.9254 -0.308389 85.8058 -0.711703C81.6862 -1.12462 77.7875 0.642281 75.3773 4.00324L43.1793 48.8672C42.0654 50.4228 41.374 52.1705 41.1243 53.9758M118.542 62.5223C118.301 64.2795 117.62 65.9888 116.535 67.5157C114.172 70.7998 110.37 72.5283 106.346 72.125L51.3896 66.6802C47.3661 66.2769 43.9667 63.8474 42.3055 60.16C40.6346 56.4725 41.0475 52.3146 43.4098 49.0304L75.6077 4.16648C77.9604 0.882351 81.7727 -0.846143 85.7962 -0.442828C89.8198 -0.0395135 93.2191 2.38998 94.8804 6.07742L117.639 56.3957C118.532 58.3739 118.83 60.4865 118.542 62.5319" fill="#E4E4E4"/>
<path d="M36.4573 56.0788C36.1308 58.4027 36.4669 60.8034 37.4848 63.0504C39.3765 67.2372 43.2368 70.0028 47.8077 70.4637L108.871 76.523C113.442 76.9744 117.773 75.0154 120.452 71.2896C123.132 67.5541 123.602 62.8296 121.71 58.6428L96.4263 2.73569C94.5346 -1.4511 90.6743 -4.21668 86.1034 -4.66801C81.5325 -5.11934 77.2017 -3.16038 74.5225 0.565475L38.7523 50.4228C37.5136 52.1513 36.7454 54.0911 36.4669 56.0884M122.479 65.5855C122.21 67.5445 121.451 69.4458 120.241 71.1359C117.62 74.7945 113.385 76.7055 108.9 76.2638L47.8365 70.2045C43.3617 69.7627 39.5782 67.0452 37.7248 62.9448C35.8715 58.8444 36.3325 54.2159 38.954 50.5669L74.7242 0.719119C77.3457 -2.93952 81.5901 -4.85046 86.065 -4.40874C90.5399 -3.96701 94.3233 -1.24944 96.1767 2.84132L121.461 58.7484C122.459 60.9474 122.786 63.3001 122.469 65.5759" fill="#E4E4E4"/>
<path d="M31.2914 58.4124C30.9361 60.9956 31.301 63.6651 32.4341 66.1522C34.5371 70.8 38.8199 73.8728 43.8902 74.3722L111.733 81.1037C116.804 81.603 121.615 79.4328 124.582 75.294C127.559 71.1553 128.077 65.9026 125.974 61.2549L97.8767 -0.865191C95.7737 -5.51291 91.4909 -8.58578 86.4207 -9.08513C81.3504 -9.58447 76.5394 -7.41425 73.5722 -3.27548L33.8265 52.1131C32.4533 54.0336 31.5987 56.1846 31.2914 58.4028M126.867 68.9562C126.57 71.1361 125.734 73.2486 124.38 75.1308C121.461 79.1927 116.746 81.3245 111.772 80.8348L43.9286 74.1033C38.9448 73.6136 34.7484 70.5887 32.6838 66.037C30.6192 61.4757 31.1281 56.3287 34.0474 52.2667L73.7931 -3.12183C76.7123 -7.18379 81.4272 -9.31559 86.4014 -8.82585C91.3853 -8.33611 95.5816 -5.31126 97.6462 -0.759563L125.744 61.3605C126.848 63.8092 127.213 66.4307 126.867 68.9562Z" fill="#E4E4E4"/>
<path d="M25.539 60.9956C25.1453 63.8572 25.5582 66.8244 26.8065 69.59C29.14 74.7467 33.8933 78.1556 39.5301 78.7222L114.912 86.1931C120.548 86.7501 125.878 84.3398 129.181 79.7401C132.485 75.1404 133.061 69.3115 130.727 64.1548L99.5088 -4.86956C97.1753 -10.0262 92.422 -13.4352 86.7852 -14.0017C81.1484 -14.5587 75.8189 -12.1484 72.5155 -7.54872L28.3526 53.9952C26.8257 56.127 25.8847 58.5181 25.539 60.9763M131.726 72.7013C131.39 75.1212 130.458 77.4738 128.96 79.5672C125.715 84.0901 120.472 86.462 114.931 85.9146L39.5493 78.4437C34.0086 77.8963 29.3321 74.5354 27.0466 69.4652C24.7516 64.3949 25.3181 58.6717 28.5638 54.1488L72.7268 -7.39507C75.9725 -11.918 81.2156 -14.2898 86.7564 -13.7425C92.2971 -13.1951 96.9737 -9.83417 99.2591 -4.76393L130.478 64.2605C131.707 66.9877 132.12 69.8973 131.726 72.7109" fill="#E4E4E4"/>
<path d="M19.1532 63.8763C18.7114 67.0548 19.1724 70.3389 20.5648 73.4214C23.1575 79.1446 28.4294 82.9377 34.6904 83.5523L118.445 91.8587C124.697 92.4828 130.622 89.8037 134.28 84.695C137.949 79.5864 138.582 73.1237 135.999 67.4005L101.314 -9.28687C98.7214 -15.0101 93.4495 -18.8032 87.1885 -19.4178C80.9371 -20.0419 75.0122 -17.3628 71.3536 -12.2541L22.2836 56.1269C20.584 58.4892 19.5373 61.1395 19.1628 63.8859M137.151 76.9168C136.777 79.6152 135.749 82.2271 134.079 84.551C130.468 89.5828 124.639 92.214 118.484 91.609L34.7288 83.3026C28.5734 82.6881 23.3688 78.9622 20.824 73.3254C19.4508 70.3005 18.9995 67.0548 19.4412 63.9243C19.8157 61.226 20.8432 58.614 22.5141 56.2902L71.584 -12.0909C75.1947 -17.1227 81.0235 -19.7538 87.1789 -19.1489C93.3342 -18.5343 98.5389 -14.8084 101.084 -9.17164L135.769 67.5157C137.142 70.5406 137.593 73.7863 137.151 76.9168Z" fill="#E4E4E4"/>
<path d="M12.0472 67.0645C11.5575 70.5887 12.0664 74.2473 13.6125 77.6563C16.4837 84.0133 22.351 88.2193 29.2937 88.9107L122.354 98.1389C129.297 98.8303 135.874 95.8534 139.936 90.1878C144.008 84.5222 144.719 77.3394 141.838 70.9824L103.292 -14.2322C100.421 -20.5892 94.5539 -24.7952 87.6111 -25.4866C80.6683 -26.178 74.0905 -23.2012 70.0285 -17.5356L15.5042 58.4508C13.6221 61.0724 12.4602 64.0204 12.0376 67.0645M143.134 81.5358C142.721 84.5318 141.569 87.4415 139.715 90.0246C135.702 95.6134 129.22 98.5518 122.373 97.87L29.3033 88.6418C22.4566 87.96 16.6758 83.8116 13.8429 77.541C11.0101 71.2705 11.7111 64.1932 15.7251 58.5949L70.2494 -17.3915C74.2633 -22.9803 80.7451 -25.9188 87.5919 -25.237C94.4386 -24.5552 100.219 -20.4068 103.052 -14.1362L141.598 71.0784C143.124 74.449 143.624 78.05 143.144 81.5262" fill="#E4E4E4"/>
<path d="M4.16331 70.6174C3.61596 74.5353 4.18252 78.5877 5.90141 82.3807C9.08951 89.4388 15.6002 94.1057 23.3111 94.8739L126.713 105.13C134.424 105.898 141.722 102.594 146.236 96.2951C150.749 90.0053 151.546 82.0254 148.348 74.9674L105.53 -19.7155C102.342 -26.7735 95.8309 -31.4404 88.12 -32.2086C80.409 -32.9768 73.1109 -29.6735 68.5976 -23.3741L8.01401 61.0531C5.92061 63.9627 4.63384 67.2372 4.16331 70.6174ZM68.8089 -23.2205C73.2645 -29.4334 80.4762 -32.6983 88.0912 -31.9397C95.7061 -31.1811 102.13 -26.5718 105.29 -19.6002L148.108 75.0827C151.258 82.0542 150.48 89.9285 146.015 96.1415C141.559 102.354 134.348 105.619 126.733 104.861L23.3304 94.605C15.7154 93.8464 9.29117 89.2371 6.13187 82.2655C2.98218 75.2939 3.76 67.4197 8.21566 61.2067L68.7993 -23.2205H68.8089Z" fill="#E4E4E4"/>
<path d="M-4.60402 74.5546C-5.209 78.9047 -4.57522 83.4083 -2.67388 87.6143C0.869531 95.4502 8.10038 100.636 16.6564 101.49L131.553 112.879C140.109 113.724 148.214 110.066 153.236 103.075C158.249 96.084 159.132 87.2302 155.579 79.3944L107.998 -25.8035C104.454 -33.6393 97.2233 -38.8248 88.6673 -39.6794C80.1112 -40.5245 72.0065 -36.8658 66.9843 -29.875L-0.321208 63.9436C-2.64507 67.1797 -4.07587 70.8096 -4.59442 74.5642M67.2052 -29.7118C72.1602 -36.6257 80.1785 -40.246 88.6481 -39.4105C97.1177 -38.5751 104.262 -33.4472 107.767 -25.6882L155.349 79.5096C158.854 87.259 157.989 96.0167 153.025 102.921C148.06 109.835 140.051 113.455 131.582 112.62L16.6852 101.231C8.21562 100.396 1.07119 95.2677 -2.43381 87.5087C-5.9388 79.7593 -5.07456 71.0016 -0.109948 64.0973L67.2052 -29.7118Z" fill="#E4E4E4"/>
<path d="M-14.3409 78.943C-15.0131 83.7731 -14.3121 88.7762 -12.1995 93.4527C-8.26241 102.153 -0.234529 107.914 9.27217 108.855L136.931 121.512C146.438 122.453 155.435 118.381 161.005 110.622C166.574 102.863 167.544 93.0302 163.617 84.3301L110.744 -32.5543C106.807 -41.2544 98.7792 -47.016 89.2725 -47.9571C79.7658 -48.8981 70.768 -44.8266 65.1984 -37.0676L-9.58758 67.1508C-12.1611 70.7422 -13.7552 74.7754 -14.3409 78.943ZM65.4193 -36.9235C70.9313 -44.6057 79.8426 -48.6389 89.2533 -47.7074C98.664 -46.7759 106.605 -41.0719 110.504 -32.4583L163.377 84.4261C167.275 93.0398 166.306 102.777 160.794 110.459C155.282 118.141 146.37 122.174 136.96 121.243L9.30098 108.587C-0.109695 107.655 -8.05115 101.951 -11.9499 93.3375C-15.8486 84.7238 -14.8787 74.9866 -9.36672 67.3045L65.4193 -36.9235Z" fill="#E4E4E4"/>
<path d="M-25.1634 83.8023C-25.9124 89.1702 -25.1345 94.7206 -22.7819 99.9156C-18.4126 109.586 -9.50131 115.981 1.06169 117.028L142.904 131.096C153.457 132.142 163.453 127.62 169.638 119.006C175.822 110.383 176.907 99.4739 172.538 89.804L113.798 -40.0825C109.428 -49.7428 100.517 -56.1383 89.9541 -57.185C79.4007 -58.2317 69.4043 -53.7088 63.2202 -45.0951L-19.8819 70.7138C-22.7435 74.6989 -24.5104 79.1834 -25.1538 83.8023M63.4314 -44.9415C69.5676 -53.4879 79.468 -57.9628 89.9349 -56.9257C100.402 -55.8886 109.227 -49.5508 113.567 -39.9673L172.307 89.9096C176.638 99.4931 175.562 110.306 169.436 118.852C163.309 127.399 153.399 131.874 142.942 130.836L1.1001 116.768C-9.35727 115.731 -18.1918 109.394 -22.5322 99.81C-26.863 90.2265 -25.7875 79.4138 -19.661 70.8674L63.4314 -44.9415Z" fill="#E4E4E4"/>
</g>
</g>
</g>
</g>
</g>
<path d="M77 38.919C77 60.1314 59.8016 77.3299 38.5891 77.3299C17.3767 77.3299 0.178223 60.1314 0.178223 38.919C0.178223 17.7065 17.3767 0.508057 38.5891 0.508057C59.8016 0.508057 77 17.7065 77 38.919Z" fill="#28357E"/>
<path d="M38.7333 73.1237C57.7249 73.1237 73.1207 57.6678 73.1207 38.6019C73.1207 19.536 57.7249 4.08008 38.7333 4.08008C19.7417 4.08008 4.34595 19.536 4.34595 38.6019C4.34595 57.6678 19.7417 73.1237 38.7333 73.1237Z" fill="white"/>
<path d="M38.0996 43.3746C38.5605 43.269 39.2135 43.1921 39.8761 43.1921C40.6731 43.1921 41.4221 43.3842 41.8927 43.8259C42.2864 44.1908 42.488 44.671 42.488 45.3143C42.488 46.2458 42.0367 47.014 41.4989 47.4653C40.8652 48.0031 39.9337 48.2432 39.0118 48.2432C38.7046 48.2432 38.4261 48.2144 38.1668 48.1856L37.5426 51.4793H36.5439L38.09 43.3842L38.0996 43.3746ZM38.3301 47.3309C38.6181 47.3885 38.8582 47.4173 39.1463 47.4173C40.5387 47.4173 41.4605 46.5531 41.4605 45.3912C41.4605 44.4117 40.7691 44.0276 39.8281 44.0276C39.4248 44.0276 39.1175 44.066 38.935 44.114L38.3204 47.3309H38.3301Z" fill="#E52A2A"/>
<path d="M46.3579 51.4697C46.3579 51.1144 46.4155 50.5574 46.4923 49.9429H46.4635C45.8201 51.1624 45.0135 51.6041 44.1684 51.6041C43.1313 51.6041 42.4688 50.7783 42.4688 49.6548C42.4688 47.6094 43.986 45.4296 46.5595 45.4296C47.1165 45.4296 47.7407 45.5256 48.144 45.66L47.5486 48.7329C47.3565 49.7604 47.2701 50.8071 47.2893 51.4697H46.3483H46.3579ZM47.0204 46.3226C46.8764 46.2842 46.6555 46.2362 46.3098 46.2362C44.783 46.2362 43.5443 47.8303 43.525 49.4723C43.525 50.1349 43.7555 50.7783 44.5333 50.7783C45.3784 50.7783 46.3771 49.6836 46.6651 48.1087L47.0108 46.3322L47.0204 46.3226Z" fill="#E52A2A"/>
<path d="M48.8739 52.814C49.2292 53.0349 49.8149 53.2077 50.4391 53.2077C51.4282 53.2077 52.206 52.6988 52.5613 51.0951L52.7534 50.2213H52.7149C52.206 51.0663 51.4858 51.4792 50.6696 51.4792C49.4884 51.4792 48.8739 50.4806 48.8739 49.4339C48.8643 47.4365 50.3335 45.4487 52.6189 45.4487C53.3007 45.4487 54.0497 45.6408 54.5107 45.8616L53.608 50.7398C53.3679 51.9882 53.0318 52.8524 52.4077 53.371C51.8219 53.8799 51.0249 54.0336 50.3431 54.0336C49.6229 54.0336 48.9507 53.8607 48.5762 53.6207L48.8643 52.8236L48.8739 52.814ZM53.3967 46.4474C53.2143 46.361 52.8494 46.2554 52.4173 46.2554C50.9384 46.2554 49.9302 47.7918 49.9206 49.261C49.9206 49.9044 50.151 50.6726 51.0537 50.6726C51.9563 50.6726 52.8014 49.5779 53.0222 48.416L53.3967 46.4474Z" fill="#E52A2A"/>
<path d="M60.8677 47.8975C60.8677 49.7124 59.5713 51.6041 57.6028 51.6041C56.1239 51.6041 55.2981 50.5094 55.2981 49.1746C55.2981 47.2349 56.6521 45.4296 58.563 45.4296C60.1571 45.4296 60.8677 46.6395 60.8677 47.8975ZM56.3448 49.1458C56.3448 50.1061 56.8729 50.8071 57.7372 50.8071C58.9279 50.8071 59.8306 49.2707 59.8306 47.8879C59.8306 47.2061 59.5137 46.2458 58.4478 46.2458C57.1802 46.2458 56.3256 47.7918 56.3352 49.1458H56.3448Z" fill="#E52A2A"/>
<path d="M61.6166 50.4518C61.8951 50.6247 62.4136 50.8167 62.8842 50.8167C63.566 50.8167 64.0077 50.375 64.0077 49.8565C64.0077 49.3955 63.7964 49.1171 63.1915 48.7714C62.5097 48.3969 62.1256 47.8687 62.1256 47.2733C62.1256 46.2362 63.0186 45.4392 64.2574 45.4392C64.7951 45.4392 65.2657 45.5833 65.4865 45.7273L65.208 46.4955C64.9968 46.3707 64.6223 46.2266 64.1805 46.2266C63.566 46.2266 63.1338 46.6011 63.1338 47.1197C63.1338 47.5422 63.4123 47.8111 63.9405 48.1088C64.6031 48.4833 65.0544 49.0018 65.0544 49.6548C65.0544 50.9032 64.0461 51.5946 62.7977 51.5946C62.164 51.5946 61.607 51.4025 61.3381 51.1912L61.6166 50.4518Z" fill="#E52A2A"/>
<path d="M38.3394 40.5706L41.6524 24.8989H46.8763C47.9998 24.8989 48.9024 25.043 49.6034 25.3407C50.2948 25.6383 50.8038 26.0417 51.1303 26.5506C51.4472 27.0691 51.6104 27.6549 51.6104 28.3175C51.6104 29.0281 51.4856 29.6427 51.2359 30.1804C50.9862 30.7086 50.6309 31.1599 50.1508 31.5152C49.6707 31.8705 49.0945 32.1586 48.4223 32.3602V32.4467C49.0465 32.6579 49.5554 33.0228 49.9203 33.5414C50.2948 34.0599 50.4773 34.6937 50.4773 35.4427C50.4773 36.6623 50.1988 37.6513 49.6322 38.41C49.0753 39.1686 48.3167 39.7159 47.366 40.0616C46.4153 40.4073 45.359 40.5802 44.1971 40.5802H38.3298L38.3394 40.5706ZM43.2272 37.2961H44.1107C44.5428 37.2961 44.9173 37.2096 45.2342 37.0464C45.5511 36.8831 45.8104 36.6623 45.9928 36.3838C46.1753 36.1053 46.2617 35.8076 46.2617 35.4715C46.2617 34.9818 46.1465 34.6073 45.9064 34.3672C45.6663 34.1271 45.2534 34.0023 44.658 34.0023H43.9282L43.2176 37.2961H43.2272ZM44.5716 30.9102H45.3398C45.8296 30.9102 46.2137 30.8334 46.4922 30.6894C46.7706 30.5453 46.9627 30.3437 47.0779 30.0844C47.1932 29.8251 47.2508 29.5274 47.2508 29.1913C47.2508 28.8553 47.1355 28.5672 46.9147 28.3847C46.6938 28.1927 46.3481 28.0966 45.8872 28.0966H45.215L44.5716 30.9006V30.9102Z" fill="#28357E"/>
<path d="M54.1457 40.5706L56.6808 28.3559H53.291L54.0304 24.8989H65.0448L64.2861 28.3559H60.8772L58.3324 40.5706H54.1457Z" fill="#28357E"/>
<path d="M31.8001 41.8958L18.5675 52.9965C17.1175 54.2161 14.9473 54.024 13.7278 52.574C13.19 51.9306 12.9211 51.1528 12.9211 50.3654C12.9211 49.3859 13.3341 48.4064 14.1503 47.7343L27.3829 36.6335C28.8329 35.414 31.0031 35.606 32.2226 37.056C33.4422 38.506 33.2501 40.6762 31.8001 41.8958Z" fill="#E52A2A"/>
<path d="M26.365 35.4235L17.8473 42.5679C16.3973 43.7875 14.2271 43.5954 13.0076 42.1454C12.4698 41.502 12.2009 40.7242 12.2009 39.9368C12.2009 38.9573 12.6235 37.9874 13.4301 37.3056L21.9477 30.1612C23.3977 28.9417 25.5679 29.1337 26.7875 30.5837C28.007 32.0337 27.815 34.204 26.365 35.4235Z" fill="#28357E"/>
<path d="M20.9298 28.9417L17.6745 31.6785C16.2245 32.8981 14.0543 32.706 12.8347 31.256C12.297 30.6126 12.0281 29.8348 12.0281 29.0474C12.0281 28.0679 12.4506 27.098 13.2572 26.4162L16.5126 23.689C17.9626 22.4695 20.1232 22.6616 21.3523 24.1116C22.5719 25.5616 22.3798 27.7318 20.9298 28.9513" fill="#FFDD00"/>
</svg>
