<svg width="29" height="24" viewBox="0 0 29 24" fill="none" xmlns="http://www.w3.org/2000/svg">
<path d="M26.584 11.6562L28.6504 13.7227C28.9199 13.9922 28.9199 14.4863 28.6504 14.7559L27.6172 15.7891C27.3477 16.0586 26.8535 16.0586 26.584 15.7891L24.5625 13.7227L22.4961 15.7891C22.2266 16.0586 21.7324 16.0586 21.4629 15.7891L20.4297 14.7559C20.1602 14.4863 20.1602 13.9922 20.4297 13.7227L22.4961 11.6562L20.4297 9.63477C20.1602 9.36523 20.1602 8.87109 20.4297 8.60156L21.4629 7.56836C21.7324 7.29883 22.2266 7.29883 22.4961 7.56836L24.5625 9.63477L26.584 7.56836C26.8535 7.29883 27.3477 7.29883 27.6172 7.56836L28.6504 8.60156C28.9199 8.87109 28.9199 9.36523 28.6504 9.63477L26.584 11.6562ZM10.1875 12.375C6.99805 12.375 4.4375 9.81445 4.4375 6.625C4.4375 3.48047 6.99805 0.875 10.1875 0.875C13.332 0.875 15.9375 3.48047 15.9375 6.625C15.9375 9.81445 13.332 12.375 10.1875 12.375ZM14.1855 13.8125C17.5098 13.8125 20.25 16.5527 20.25 19.877V21.7188C20.25 22.9316 19.2617 23.875 18.0938 23.875H2.28125C1.06836 23.875 0.125 22.9316 0.125 21.7188V19.877C0.125 16.5527 2.82031 13.8125 6.14453 13.8125H6.9082C7.89648 14.3066 9.01953 14.5312 10.1875 14.5312C11.3555 14.5312 12.4336 14.3066 13.4219 13.8125H14.1855Z" fill="#1B4686"/>
</svg>
