<?xml version="1.0" encoding="utf-8"?>
<!-- Generator: Adobe Illustrator 22.1.0, SVG Export Plug-In . SVG Version: 6.00 Build 0)  -->
<svg version="1.1" xmlns="http://www.w3.org/2000/svg" xmlns:xlink="http://www.w3.org/1999/xlink" x="0px" y="0px"
	 viewBox="0 0 452 338.5" style="enable-background:new 0 0 452 338.5;" xml:space="preserve">
<style type="text/css">
	.st0{fill:#F2F2F2;}
	.st1{clip-path:url(#SVGID_2_);fill:#F2F2F2;}
	.st2{fill:#004980;}
	.st3{fill:#003B66;}
	.st4{clip-path:url(#SVGID_4_);fill:#B7CE41;}
	.st5{clip-path:url(#SVGID_4_);fill:#C2D94E;}
	.st6{clip-path:url(#SVGID_4_);fill:#99AB36;}
	.st7{clip-path:url(#SVGID_6_);fill:#002743;}
	.st8{clip-path:url(#SVGID_6_);fill:#003B66;}
	.st9{clip-path:url(#SVGID_6_);fill:#99AB36;}
	.st10{clip-path:url(#SVGID_6_);fill:#B7CE41;}
	.st11{clip-path:url(#SVGID_6_);fill:#C2D94E;}
	.st12{clip-path:url(#SVGID_6_);fill:#D6E279;}
</style>
<g id="pago">
	<g>
		<path class="st0" d="M331.6,11.6c3.4-2.5,7-2.9,10.8-1s5.7,5,5.7,9.2v305.2c0,4.2-1.9,7.3-5.7,9.2c-3.8,1.9-7.4,1.6-10.8-1
			l-24.2-28.6l-34.3,28.6c-2.1,1.3-4.2,1.9-6.4,1.9c-2.1,0-4.2-0.6-6.4-1.9L226,304.8l-34.3,28.6c-2.1,1.3-4.2,1.9-6.4,1.9
			c-2.1,0-4.2-0.6-6.4-1.9l-34.3-28.6l-24.2,28.6c-3.4,2.5-7,2.9-10.8,1c-3.8-1.9-5.7-5-5.7-9.2V19.9c0-4.2,1.9-7.3,5.7-9.2
			s7.4-1.6,10.8,1l24.2,28.6l34.3-28.6c2.1-1.3,4.2-1.9,6.4-1.9c2.1,0,4.2,0.6,6.4,1.9L226,40.2l34.3-28.6c2.1-1.3,4.2-1.9,6.4-1.9
			c2.1,0,4.2,0.6,6.4,1.9l34.3,28.6L331.6,11.6z M307.4,116.5v-10.2c0-3.4-1.7-5.1-5.1-5.1H149.7c-3.4,0-5.1,1.7-5.1,5.1v10.2
			c0,3.4,1.7,5.1,5.1,5.1h152.6C305.7,121.6,307.4,119.9,307.4,116.5z M307.4,177.6v-10.2c0-3.4-1.7-5.1-5.1-5.1H149.7
			c-3.4,0-5.1,1.7-5.1,5.1v10.2c0,3.4,1.7,5.1,5.1,5.1h152.6C305.7,182.7,307.4,181,307.4,177.6z M307.4,238.6v-10.2
			c0-3.4-1.7-5.1-5.1-5.1H149.7c-3.4,0-5.1,1.7-5.1,5.1v10.2c0,3.4,1.7,5.1,5.1,5.1h152.6C305.7,243.7,307.4,242,307.4,238.6z"/>
	</g>
</g>
<g id="control">
</g>
<g id="wifi">
</g>
<g id="computer">
</g>
<g id="tv">
</g>
</svg>
