<?xml version="1.0" encoding="UTF-8" standalone="no"?>
<svg
   xmlns:dc="http://purl.org/dc/elements/1.1/"
   xmlns:cc="http://creativecommons.org/ns#"
   xmlns:rdf="http://www.w3.org/1999/02/22-rdf-syntax-ns#"
   xmlns:svg="http://www.w3.org/2000/svg"
   xmlns="http://www.w3.org/2000/svg"
   xmlns:sodipodi="http://sodipodi.sourceforge.net/DTD/sodipodi-0.dtd"
   xmlns:inkscape="http://www.inkscape.org/namespaces/inkscape"
   viewBox="0 0 512 512"
   width="512"
   height="512"
   version="1.1"
   id="svg40"
   sodipodi:docname="invoice.svg"
   inkscape:version="1.0.2 (e86c870879, 2021-01-15)">
  <metadata
     id="metadata46">
    <rdf:RDF>
      <cc:Work
         rdf:about="">
        <dc:format>image/svg+xml</dc:format>
        <dc:type
           rdf:resource="http://purl.org/dc/dcmitype/StillImage" />
      </cc:Work>
    </rdf:RDF>
  </metadata>
  <defs
     id="defs44" />
  <sodipodi:namedview
     pagecolor="#ffffff"
     bordercolor="#666666"
     borderopacity="1"
     objecttolerance="10"
     gridtolerance="10"
     guidetolerance="10"
     inkscape:pageopacity="0"
     inkscape:pageshadow="2"
     inkscape:window-width="1600"
     inkscape:window-height="863"
     id="namedview42"
     showgrid="false"
     inkscape:zoom="1.3090781"
     inkscape:cx="256"
     inkscape:cy="256"
     inkscape:window-x="0"
     inkscape:window-y="0"
     inkscape:window-maximized="1"
     inkscape:current-layer="svg40" />
  <g
     id="_07-secured"
     data-name="07-secured"
     style="fill:#ffffff">
    <g
       id="linear_color-2"
       data-name="linear color"
       style="fill:#ffffff">
      <path
         d="M127.087,467.022h50.956a10,10,0,1,0,0-20H127.087a10,10,0,0,0,0,20Z"
         id="path24"
         style="fill:#ffffff" />
      <path
         d="M64,242h96a10,10,0,0,0,10-10V120a10,10,0,0,0-10-10H64a10,10,0,0,0-10,10V232A10,10,0,0,0,64,242ZM74,130h76v92H74Z"
         id="path26"
         style="fill:#ffffff" />
      <path
         d="M64,290h48a10,10,0,0,0,0-20H64a10,10,0,0,0,0,20Z"
         id="path28"
         style="fill:#ffffff" />
      <path
         d="M64,338h80a10,10,0,0,0,0-20H64a10,10,0,0,0,0,20Z"
         id="path30"
         style="fill:#ffffff" />
      <path
         d="M170,365H64a10,10,0,0,0,0,20H170a10,10,0,0,0,0-20Z"
         id="path32"
         style="fill:#ffffff" />
      <path
         d="M336,102a170.705,170.705,0,0,0-38,4.255V33A26.03,26.03,0,0,0,272,7H32A26.03,26.03,0,0,0,6,33V481a26.03,26.03,0,0,0,26,26H272a26.03,26.03,0,0,0,26-26V373.766A171.591,171.591,0,0,0,336,378c84.916,0,154-61.907,154-138S420.916,102,336,102ZM26,33a6.006,6.006,0,0,1,6-6H272a6.006,6.006,0,0,1,6,6V62.957H26ZM278,481a6.006,6.006,0,0,1-6,6H32a6.006,6.006,0,0,1-6-6V427.043H278Zm0-73.957H26V82.957H278V112.17c-56.251,20.57-96,70.115-96,127.83a124.767,124.767,0,0,0,3.676,30H144a10,10,0,0,0,0,20h48.424a132.1,132.1,0,0,0,11.562,21.108l-21.271,53.178a10,10,0,0,0,13,13l55.356-22.143A160.3,160.3,0,0,0,278,367.872ZM336,358a149.992,149.992,0,0,1-44.948-6.812c-.059-.019-.119-.036-.179-.054a140.524,140.524,0,0,1-33.459-15.571,9.992,9.992,0,0,0-9.1-.859l-38.364,15.345,14.615-36.54a10,10,0,0,0-1.22-9.627C209.381,284.837,202,262.747,202,240c0-65.065,60.112-118,134-118s134,52.935,134,118S409.888,358,336,358Z"
         id="path34"
         style="fill:#ffffff" />
      <path
         d="M347,229H330a14,14,0,0,1,0-28h24.811a5.506,5.506,0,0,1,5.5,5.744,10,10,0,0,0,19.982.86A25.508,25.508,0,0,0,354.811,181H349v-6a10,10,0,0,0-20,0v6.025A33.995,33.995,0,0,0,330,249h17a14.015,14.015,0,0,1,14,14v1a14.015,14.015,0,0,1-14,14H321.791a5.507,5.507,0,0,1-5.507-5.609l.019-1.038a10,10,0,1,0-20-.358l-.019,1.036A25.509,25.509,0,0,0,321.791,298H329v6a10,10,0,0,0,20,0v-6.064A34.039,34.039,0,0,0,381,264v-1A34.038,34.038,0,0,0,347,229Z"
         id="path36"
         style="fill:#ffffff" />
    </g>
  </g>
</svg>
