<?xml version="1.0" encoding="utf-8"?>
<!-- Generator: Adobe Illustrator 22.1.0, SVG Export Plug-In . SVG Version: 6.00 Build 0)  -->
<svg version="1.1" id="Layer_1" xmlns="http://www.w3.org/2000/svg" xmlns:xlink="http://www.w3.org/1999/xlink" x="0px" y="0px"
	 viewBox="0 0 250 200" style="enable-background:new 0 0 250 200;" xml:space="preserve">
<path d="M241.2,7.4h-33c-0.5,0-0.9,0.4-0.9,0.9v7.1v45.5V68c0,0.5,0.4,0.9,0.9,0.9h33c0.5,0,0.9-0.4,0.9-0.9v-7.1V15.5V8.4
	C242.1,7.9,241.7,7.4,241.2,7.4z M240.3,9.3v5.2h-31.1V9.3H240.3z M240.3,60h-31.1V16.4h31.1V60z M209.2,67.1v-5.2h31.1v5.2H209.2z"
	/>
<path d="M211.6,23.9c0.2,0,0.5-0.1,0.7-0.3l4.4-4.4c0.4-0.4,0.4-1,0-1.3c-0.4-0.4-1-0.4-1.3,0l-4.4,4.4c-0.4,0.4-0.4,1,0,1.3
	C211.1,23.8,211.3,23.9,211.6,23.9z"/>
<path d="M212.5,28.2c0.2,0.2,0.4,0.3,0.7,0.3c0.2,0,0.5-0.1,0.7-0.3l7.4-7.4c0.4-0.4,0.4-1,0-1.3c-0.4-0.4-1-0.4-1.3,0l-7.4,7.4
	C212.1,27.3,212.1,27.9,212.5,28.2z"/>
<path d="M135.6,24.2c0-2.5-2.1-4.6-4.6-4.6h-12l-5.8-7.1c-0.2-0.2-0.4-0.3-0.7-0.3H97.2c-0.3,0-0.5,0.1-0.7,0.3l-5.8,7.1h-12
	c-2.5,0-4.6,2.1-4.6,4.6v32.6c0,2.5,2.1,4.6,4.6,4.6H131c2.5,0,4.6-2.1,4.6-4.6V32.3c0,0,0,0,0,0s0,0,0,0V24.2z M78.7,21.5h12.4
	c0.3,0,0.5-0.1,0.7-0.3l5.8-7.1h14.5l5.8,7.1c0.2,0.2,0.4,0.3,0.7,0.3H131c1.5,0,2.7,1.2,2.7,2.7v7.2h-15.5c-2.9-4.5-8-7.3-13.4-7.3
	c-5.4,0-10.4,2.8-13.4,7.3H76v-7.2C76,22.7,77.2,21.5,78.7,21.5z M92.8,32.8c2.5-4.2,7.1-6.9,12.1-6.9c5,0,9.5,2.6,12,6.9
	c1.3,2.2,2,4.6,2,7.1c0,7.7-6.3,14-14,14c-7.7,0-14-6.3-14-14C90.9,37.4,91.5,34.9,92.8,32.8z M131,59.6H78.7
	c-1.5,0-2.7-1.2-2.7-2.7V33.2h14.5c-1,2.1-1.5,4.4-1.5,6.7c0,8.7,7.1,15.9,15.9,15.9c8.7,0,15.9-7.1,15.9-15.9
	c0-2.3-0.5-4.6-1.5-6.7h14.5v23.6C133.8,58.4,132.5,59.6,131,59.6z"/>
<path d="M104.9,50.6c5.9,0,10.7-4.8,10.7-10.7c0-5.9-4.8-10.7-10.7-10.7c-5.9,0-10.7,4.8-10.7,10.7C94.2,45.8,99,50.6,104.9,50.6z
	 M104.9,31.1c4.9,0,8.8,3.9,8.8,8.8c0,4.9-3.9,8.8-8.8,8.8c-4.9,0-8.8-3.9-8.8-8.8C96.1,35.1,100,31.1,104.9,31.1z"/>
<path d="M129,17.7c0.5,0,0.9-0.4,0.9-0.9c0-0.5-0.4-0.9-0.9-0.9h-6.5c-0.5,0-0.9,0.4-0.9,0.9c0,0.5,0.4,0.9,0.9,0.9H129z"/>
<path d="M39.7,66c0-0.5-0.4-0.9-0.9-0.9H21.6c-0.5,0-0.9,0.4-0.9,0.9c0,0.5,0.4,0.9,0.9,0.9h17.2C39.3,67,39.7,66.5,39.7,66z"/>
<path d="M9,70.1C9,70.6,9.4,71,9.9,71h11.7c0.5,0,0.9-0.4,0.9-0.9s-0.4-0.9-0.9-0.9H10.8V58.8h34v5.9c0,0.5,0.4,0.9,0.9,0.9
	c0.5,0,0.9-0.4,0.9-0.9v-5.9h9.5v10.3H38.8c-0.5,0-0.9,0.4-0.9,0.9s0.4,0.9,0.9,0.9h18.3c0.5,0,0.9-0.4,0.9-0.9V57.9
	c0-0.5-0.4-0.9-0.9-0.9H9.9c-0.5,0-0.9,0.4-0.9,0.9V70.1z"/>
<path d="M57.1,45.2c0.5,0,0.9-0.4,0.9-0.9v-5.1v-24V10C58,9.5,57.6,9,57.1,9H9.9C9.4,9,9,9.5,9,10v5.1v24v5.1c0,0.5,0.4,0.9,0.9,0.9
	h16.9L24.9,50h-6.6c-0.5,0-0.9,0.4-0.9,0.9c0,0.5,0.4,0.9,0.9,0.9h30.4c0.5,0,0.9-0.4,0.9-0.9c0-0.5-0.4-0.9-0.9-0.9h-6.6l-1.9-4.8
	H57.1z M10.8,16.1h45.4v22.1H10.8V16.1z M10.8,10.9h45.4v3.3H10.8V10.9z M10.8,40.1h45.4v3.3H38.8c0,0,0,0,0,0H28.2c0,0,0,0,0,0
	H10.8V40.1z M40.1,50H26.9l1.9-4.8h9.3L40.1,50z"/>
<path d="M173.7,26.2c0.2,0.2,0.4,0.3,0.7,0.3c0.2,0,0.5-0.1,0.7-0.3l8-8c0.8,0.5,1.6,0.7,2.5,0.7c1.2,0,2.3-0.4,3.2-1.3
	c0.9-0.9,1.3-2,1.3-3.2c0-1.2-0.5-2.4-1.3-3.2c-1.8-1.8-4.7-1.8-6.4,0c-0.9,0.9-1.3,2-1.3,3.2c0,0.9,0.3,1.8,0.7,2.5l-8,8
	C173.4,25.2,173.4,25.8,173.7,26.2z M183.7,12.4c0.5-0.5,1.2-0.8,1.9-0.8c0.7,0,1.4,0.3,1.9,0.8c0.5,0.5,0.8,1.2,0.8,1.9
	c0,0.7-0.3,1.4-0.8,1.9c-1,1-2.8,1-3.8,0c-0.5-0.5-0.8-1.2-0.8-1.9C182.9,13.6,183.2,13,183.7,12.4z"/>
<path d="M152.5,69.6h11.5h11.5c0.5,0,0.9-0.4,0.9-0.9v-3c0-0.2-0.1-0.5-0.2-0.6l-3.3-3.7v-8.6c0-0.5-0.4-0.9-0.9-0.9
	c-0.5,0-0.9,0.4-0.9,0.9v8h-10c-0.5,0-0.9,0.4-0.9,0.9c0,0.5,0.4,0.9,0.9,0.9h10.5l3,3.4v1.7h-10.6h-10.6V66l3.3-3.7
	c0.2-0.2,0.2-0.4,0.2-0.6V48.9l7.2-5.6c3.5,2.2,7.4,3.6,11.4,3.8c0.4,0,0.9,0,1.3,0c5.3,0,10.1-1.9,13.7-5.5c0,0,0,0,0,0
	c2.9-2.9,0.9-9.7-5-17.3c-0.3-0.4-0.9-0.5-1.3-0.2c-0.4,0.3-0.5,0.9-0.2,1.3c5.1,6.5,7.2,12.8,5.1,14.8c-2.4,2.4-11.2-0.9-20-9.7
	c-4.1-4.1-7.3-8.5-9.1-12.4c-1.6-3.6-1.9-6.4-0.6-7.6c2.1-2.1,8.3,0.1,14.8,5.1c0.4,0.3,1,0.2,1.3-0.2c0.3-0.4,0.2-1-0.2-1.3
	c-7.6-5.9-14.4-7.8-17.3-4.9c0,0,0,0,0,0c-3.9,3.9-5.8,9.2-5.5,15c0.3,5.8,2.9,11.3,7.2,15.6c0.8,0.8,1.7,1.6,2.6,2.2l-7.1,5.5
	c-0.2,0.2-0.4,0.4-0.4,0.7v12.9l-3.3,3.7c-0.2,0.2-0.2,0.4-0.2,0.6v3C151.6,69.2,152,69.6,152.5,69.6z M154.6,24.2
	c-0.2-3.7,0.6-7.2,2.3-10.2c0,0.1,0,0.2,0,0.3c0,0.2,0,0.3,0.1,0.5c0,0.3,0.1,0.6,0.2,0.8c0,0.2,0.1,0.3,0.1,0.5
	c0.1,0.3,0.2,0.6,0.3,1c0.1,0.1,0.1,0.3,0.1,0.4c0.2,0.5,0.4,1,0.6,1.5c1.9,4.1,5.2,8.7,9.4,12.9c0.4,0.4,0.8,0.8,1.3,1.2
	c0.1,0.1,0.3,0.3,0.4,0.4c0.3,0.3,0.6,0.5,0.8,0.8c0.2,0.1,0.3,0.3,0.5,0.4c0.3,0.2,0.5,0.4,0.8,0.7c0.2,0.1,0.4,0.3,0.5,0.4
	c0.2,0.2,0.5,0.4,0.7,0.6c0.2,0.1,0.4,0.3,0.5,0.4c0.2,0.2,0.5,0.4,0.7,0.5c0.2,0.1,0.4,0.3,0.6,0.4c0.2,0.2,0.5,0.3,0.7,0.5
	c0.2,0.1,0.4,0.3,0.6,0.4c0.2,0.2,0.5,0.3,0.7,0.4c0.2,0.1,0.4,0.2,0.5,0.3c0.2,0.1,0.4,0.3,0.7,0.4c0.2,0.1,0.4,0.2,0.5,0.3
	c0.2,0.1,0.4,0.2,0.7,0.4c0.2,0.1,0.3,0.2,0.5,0.3c0.2,0.1,0.4,0.2,0.7,0.3c0.2,0.1,0.3,0.2,0.5,0.2c0.2,0.1,0.4,0.2,0.6,0.3
	c0.2,0.1,0.3,0.1,0.5,0.2c0.2,0.1,0.4,0.2,0.7,0.2c0.1,0.1,0.3,0.1,0.4,0.2c0.2,0.1,0.5,0.1,0.7,0.2c0.1,0,0.2,0.1,0.4,0.1
	c0.3,0.1,0.6,0.2,0.9,0.2c0.1,0,0.1,0,0.2,0c0.3,0.1,0.6,0.1,0.8,0.1c-3,1.8-6.5,2.6-10.3,2.4c-5.3-0.3-10.4-2.7-14.4-6.7
	C157.3,34.7,154.9,29.5,154.6,24.2z"/>
<path d="M9.7,128.4c1,0.5,2.2,0.8,3.3,0.8c1.9,0,3.9-0.8,5.2-2.3l7.6-8.1c0.7,0.4,1.5,0.6,2.4,0.6c2.7,0,4.8-1.9,5.3-4.5h6.1
	c0.4,2.5,2.6,4.5,5.3,4.5c0.9,0,1.7-0.2,2.4-0.6l7.6,8.1c2.2,2.3,5.7,2.9,8.5,1.5c3.1-1.6,4.6-5.2,3.5-8.6L59,95c-1-3-3.7-5-6.8-5
	h-1.8c-2.1,0-4.1,0.9-5.4,2.5c0,0,0,0,0,0c-1,1.2-2.5,1.8-4,1.8h-8.7c-1.5,0-3-0.7-4-1.8c0,0,0,0,0,0c-1.4-1.6-3.3-2.5-5.4-2.5H21
	c-3.1,0-5.9,2-6.8,5l-8,24.8C5.1,123.2,6.6,126.8,9.7,128.4z M28.2,117.6c-1.9,0-3.5-1.6-3.5-3.5c0-1.9,1.6-3.5,3.5-3.5
	c1.9,0,3.5,1.6,3.5,3.5C31.8,116,30.2,117.6,28.2,117.6z M37,108.7h3.3c0.3,0.5,0.7,1.1,0.9,1.5c-0.8,0.8-1.3,1.8-1.5,2.9h-6.1
	c-0.2-0.9-0.5-1.7-1.1-2.4c0.1-0.3,0.7-1.1,1.2-2H37z M41.4,114c0-1.9,1.6-3.5,3.5-3.5s3.5,1.6,3.5,3.5c0,1.9-1.6,3.5-3.5,3.5
	S41.4,116,41.4,114z M7.9,120.4l8-24.8c0.7-2.2,2.7-3.7,5.1-3.7h1.8c1.5,0,3,0.7,4,1.8c0,0,0,0,0,0c1.4,1.6,3.3,2.5,5.4,2.5h8.7
	c2.1,0,4.1-0.9,5.4-2.5c0,0,0,0,0,0c1-1.2,2.5-1.8,4-1.8h1.8c2.3,0,4.4,1.5,5.1,3.7l8,24.8c0.8,2.5-0.3,5.1-2.6,6.3
	c-2.1,1.1-4.7,0.6-6.3-1.1l-7.5-7.9c0.9-1,1.5-2.3,1.5-3.7c0-3-2.4-5.4-5.4-5.4c-0.8,0-1.5,0.2-2.2,0.5c-0.3-0.5-0.7-1.1-1.2-1.9
	c-0.2-0.3-0.5-0.4-0.8-0.4H37h-3.8c-0.3,0-0.6,0.2-0.8,0.4c-0.6,1-1.1,1.7-1.3,2.2c-0.8-0.5-1.8-0.8-2.8-0.8c-3,0-5.4,2.4-5.4,5.4
	c0,1.4,0.6,2.7,1.5,3.7l-7.5,7.9c-1.6,1.7-4.2,2.2-6.3,1.1C8.2,125.5,7.1,122.9,7.9,120.4z"/>
<path d="M16.8,106H19v2.2c0,0.5,0.4,0.9,0.9,0.9h4.8c0.5,0,0.9-0.4,0.9-0.9V106h2.2c0.5,0,0.9-0.4,0.9-0.9v-4.8
	c0-0.5-0.4-0.9-0.9-0.9h-2.2v-2.2c0-0.5-0.4-0.9-0.9-0.9h-4.8c-0.5,0-0.9,0.4-0.9,0.9v2.2h-2.2c-0.5,0-0.9,0.4-0.9,0.9v4.8
	C15.9,105.6,16.3,106,16.8,106z M17.7,101.2h2.2c0.5,0,0.9-0.4,0.9-0.9v-2.2h2.9v2.2c0,0.5,0.4,0.9,0.9,0.9h2.2v2.9h-2.2
	c-0.5,0-0.9,0.4-0.9,0.9v2.2h-2.9V105c0-0.5-0.4-0.9-0.9-0.9h-2.2V101.2z"/>
<path d="M50.6,99.8c1.1,0,1.9-0.9,1.9-1.9c0-1.1-0.9-1.9-1.9-1.9c-1.1,0-1.9,0.9-1.9,1.9C48.7,98.9,49.6,99.8,50.6,99.8z"/>
<path d="M50.9,105.5c-1.1,0-1.9,0.9-1.9,1.9c0,1.1,0.9,1.9,1.9,1.9c1.1,0,1.9-0.9,1.9-1.9C52.9,106.4,52,105.5,50.9,105.5z"/>
<path d="M55.6,104.4c1.1,0,1.9-0.9,1.9-1.9c0-1.1-0.9-1.9-1.9-1.9s-1.9,0.9-1.9,1.9C53.6,103.6,54.5,104.4,55.6,104.4z"/>
<path d="M46,104.7c1.1,0,1.9-0.9,1.9-1.9c0-1.1-0.9-1.9-1.9-1.9s-1.9,0.9-1.9,1.9C44.1,103.9,44.9,104.7,46,104.7z"/>
<path d="M245.1,116.7h-3.1V88.5c0-1.9-1.5-3.4-3.4-3.4h-46.8c-1.9,0-3.4,1.5-3.4,3.4v28.2h-3.1c-0.5,0-0.9,0.4-0.9,0.9v4.8
	c0,3.2,2.6,5.7,5.7,5.7h50.1c3.2,0,5.7-2.6,5.7-5.7v-4.8C246.1,117.2,245.6,116.7,245.1,116.7z M190.4,88.5c0-0.8,0.7-1.5,1.5-1.5
	h46.8c0.8,0,1.5,0.7,1.5,1.5v28.2h-49.8V88.5z M244.2,122.5c0,2.1-1.7,3.9-3.9,3.9h-50.1c-2.1,0-3.9-1.7-3.9-3.9v-3.9h57.8V122.5z"
	/>
<path d="M219,121.5h-7.3c-0.5,0-0.9,0.4-0.9,0.9c0,0.5,0.4,0.9,0.9,0.9h7.3c0.5,0,0.9-0.4,0.9-0.9C219.9,122,219.5,121.5,219,121.5z
	"/>
<path d="M194.8,97.2l5.5-5.5c0.4-0.4,0.4-1,0-1.3c-0.4-0.4-1-0.4-1.3,0l-5.5,5.5c-0.4,0.4-0.4,1,0,1.3c0.2,0.2,0.4,0.3,0.7,0.3
	C194.4,97.5,194.6,97.4,194.8,97.2z"/>
<path d="M204.4,90.7l-10.6,10.6c-0.4,0.4-0.4,1,0,1.3c0.2,0.2,0.4,0.3,0.7,0.3c0.2,0,0.5-0.1,0.7-0.3L205.7,92c0.4-0.4,0.4-1,0-1.3
	C205.3,90.3,204.7,90.3,204.4,90.7z"/>
<path d="M113.4,76.4H77.5c-1.6,0-2.9,1.3-2.9,2.9v55.8c0,1.6,1.3,2.9,2.9,2.9h18.1h17.8h0.3h0h0h0h0h0h0h16.5c1.6,0,2.9-1.3,2.9-2.9
	v-31c0-1.6-1.3-2.9-2.9-2.9h-4.4v-9.2c0-1.6-1.3-2.9-2.8-2.9h-6.8v-9.9C116.2,77.7,115,76.4,113.4,76.4z M77.5,78.3h35.9
	c0.6,0,1,0.4,1,1v9.9H95.6c-1.6,0-2.9,1.3-2.9,2.9v36.8H76.5V79.3C76.5,78.7,76.9,78.3,77.5,78.3z M77.5,136.1c-0.6,0-1-0.4-1-1
	v-4.4h16.2v4.4c0,0.2,0,0.4,0.1,0.5c0,0.1,0,0.1,0,0.2c0,0.1,0,0.2,0.1,0.3H77.5z M130.3,136.1h-16.5h0c0,0-0.1,0-0.1,0
	c-0.5,0-0.9-0.5-0.9-1v-4.6c0.2,0.2,0.4,0.3,0.6,0.3h17.9v4.4C131.2,135.7,130.8,136.1,130.3,136.1z M131.2,104.1v24.8h-17.9
	c-0.2,0-0.5,0.1-0.6,0.3v-25c0-0.5,0.4-1,1-1h11.2h5.3C130.8,103.2,131.2,103.6,131.2,104.1z M113.7,101.3c-1.6,0-2.9,1.3-2.9,2.9
	v31c0,0.2,0,0.4,0,0.5c0,0.1,0,0.1,0,0.2c0,0.1,0,0.2,0.1,0.3H95.6c-0.6,0-1-0.4-1-1V97.8H124v3.5H113.7z M124,92.1V96H94.6v-3.9
	c0-0.6,0.4-1,1-1h19.7h7.7C123.6,91.1,124,91.5,124,92.1z"/>
<path d="M164.1,84.9h8.4c2.9,0,5.3-2.4,5.3-5.3v-5.7c0-0.5-0.4-0.9-0.9-0.9c-0.5,0-0.9,0.4-0.9,0.9v5.7c0,1.9-1.5,3.4-3.4,3.4h-8.4
	c-2.9,0-5.3,2.4-5.3,5.3v2c-7.1,0.5-12.6,6.1-12.8,13.3c0,0,0,0,0,0c0,0,0,0,0,0c0,0,0,0,0,0c0,0,0,0,0,0c0,0.1,0,0.2,0,0.4v16.7
	c0,7.6,6.2,13.8,13.8,13.8c7.6,0,13.8-6.2,13.8-13.8V104c0-0.1,0-0.2,0-0.4c0,0,0,0,0,0c0,0,0,0,0,0c0,0,0,0,0,0c0,0,0,0,0,0
	c-0.1-3.5-1.5-6.8-4-9.3c-2.4-2.4-5.5-3.8-8.8-4v-2C160.7,86.4,162.2,84.9,164.1,84.9z M158.8,92.2v14c-0.2,0-0.5,0-0.7,0
	c-0.2,0-0.3,0-0.5,0c-0.4,0-0.7-0.1-1.1-0.1c-0.2,0-0.4-0.1-0.6-0.1c-0.3-0.1-0.7-0.1-1-0.2c-0.2,0-0.4-0.1-0.6-0.1
	c-0.3-0.1-0.6-0.1-0.9-0.2c-0.2-0.1-0.4-0.1-0.6-0.2c-0.3-0.1-0.6-0.2-0.9-0.3c-0.2-0.1-0.4-0.2-0.6-0.2c-0.3-0.1-0.5-0.2-0.8-0.3
	c-0.2-0.1-0.4-0.2-0.6-0.3c-0.3-0.1-0.5-0.2-0.8-0.4c-0.2-0.1-0.4-0.2-0.6-0.3c-0.2-0.1-0.3-0.2-0.5-0.3
	C148.3,97.3,153,92.6,158.8,92.2z M171.6,120.8c0,6.6-5.3,11.9-11.9,11.9c-6.6,0-11.9-5.3-11.9-11.9v-15.5c0,0,0,0,0,0
	c0,0,0.1,0,0.1,0.1c0.4,0.2,0.9,0.4,1.3,0.6c0.2,0.1,0.3,0.1,0.5,0.2c0.3,0.1,0.7,0.3,1,0.4c0.2,0.1,0.4,0.1,0.6,0.2
	c0.3,0.1,0.6,0.2,1,0.3c0.2,0.1,0.4,0.1,0.6,0.2c0.3,0.1,0.7,0.2,1,0.2c0.2,0,0.4,0.1,0.7,0.1c0.3,0.1,0.7,0.1,1,0.2
	c0.2,0,0.4,0.1,0.6,0.1c0.4,0,0.8,0.1,1.1,0.1c0.2,0,0.4,0,0.6,0c0.6,0,1.1,0.1,1.7,0.1c0.6,0,1.1,0,1.7-0.1c0.2,0,0.4,0,0.5,0
	c0.4,0,0.8-0.1,1.1-0.1c0.2,0,0.4-0.1,0.6-0.1c0.3-0.1,0.7-0.1,1-0.2c0.2,0,0.4-0.1,0.6-0.1c0.3-0.1,0.7-0.1,1-0.2
	c0.2-0.1,0.4-0.1,0.6-0.2c0.3-0.1,0.7-0.2,1-0.3c0.2-0.1,0.4-0.1,0.6-0.2c0.4-0.1,0.7-0.3,1-0.4c0.2-0.1,0.3-0.1,0.5-0.2
	c0.5-0.2,1-0.4,1.4-0.7c0,0,0,0,0,0c0,0,0,0,0,0V120.8z M168.2,95.6c2,2,3.2,4.7,3.4,7.5c-0.1,0.1-0.3,0.2-0.4,0.3
	c-0.2,0.1-0.4,0.2-0.6,0.3c-0.2,0.1-0.5,0.2-0.7,0.3c-0.2,0.1-0.4,0.2-0.6,0.3c-0.3,0.1-0.5,0.2-0.8,0.3c-0.2,0.1-0.4,0.2-0.7,0.2
	c-0.3,0.1-0.6,0.2-0.9,0.3c-0.2,0.1-0.4,0.1-0.7,0.2c-0.3,0.1-0.6,0.1-0.9,0.2c-0.2,0-0.4,0.1-0.7,0.1c-0.3,0.1-0.6,0.1-1,0.2
	c-0.2,0-0.4,0.1-0.6,0.1c-0.4,0-0.7,0.1-1.1,0.1c-0.2,0-0.3,0-0.5,0c-0.2,0-0.5,0-0.7,0v-14C163.5,92.4,166.1,93.6,168.2,95.6z"/>
<path d="M134.1,154.7c-19.7,1.7-39.8,1.7-59.5,0c-0.3,0-0.5,0.1-0.7,0.2c-0.2,0.2-0.3,0.4-0.3,0.7v30.6c0,0.3,0.1,0.5,0.3,0.7
	c0.2,0.2,0.4,0.3,0.7,0.2c6.2-0.5,12.3-0.9,18.5-1l-1.2,2.7h-4.6c-0.5,0-0.9,0.4-0.9,0.9c0,0.5,0.4,0.9,0.9,0.9h34
	c0.5,0,0.9-0.4,0.9-0.9c0-0.5-0.4-0.9-0.9-0.9h-4.6l-1.2-2.7c6.2,0.2,12.4,0.5,18.5,1c0,0,0.1,0,0.1,0c0.2,0,0.5-0.1,0.6-0.2
	c0.2-0.2,0.3-0.4,0.3-0.7v-30.6c0-0.3-0.1-0.5-0.3-0.7C134.6,154.8,134.3,154.7,134.1,154.7z M114.7,188.9H93.9l1.2-2.8
	c6.1-0.2,12.2-0.2,18.3,0L114.7,188.9z M133.2,185.3c-6.3-0.5-12.6-0.8-18.9-1c-0.1,0-0.2,0-0.4,0c-3.2-0.1-6.4-0.1-9.6-0.1
	c-3.2,0-6.4,0.1-9.6,0.1c-0.1,0-0.2,0-0.4,0c-6.3,0.2-12.6,0.5-18.9,1v-28.6c19.2,1.6,38.6,1.6,57.8,0V185.3z"/>
<path d="M178.2,145.8c-4.8,0-8.9,3.4-9.9,8.1c-0.1,0.4-0.1,0.8-0.2,1.2c0,0.3,0,0.5,0,0.8c0,3.2,1.5,6.2,4.1,8.1
	c0.5,0.4,1.1,0.8,1.7,1c1.3,0.6,2.8,1,4.3,1c1.7,0,3.5-0.5,5-1.3c0,0,0,0,0,0c3.1-1.8,5.1-5.2,5.1-8.7
	C188.2,150.3,183.7,145.8,178.2,145.8z M182.3,163.2c-2.4,1.4-5.3,1.5-7.8,0.3c-0.5-0.2-0.9-0.5-1.4-0.8c-2.2-1.6-3.4-4.1-3.4-6.8
	c0-0.2,0-0.4,0-0.7c0-0.3,0.1-0.6,0.1-1c0.8-3.9,4.3-6.8,8.3-6.8c4.7,0,8.4,3.8,8.4,8.4C186.6,158.8,185,161.6,182.3,163.2z"/>
<path d="M179.2,141.6c-0.7-0.1-1.4-0.1-2.1,0c-6.2,0.4-11.3,5-12.5,11.2c-0.6,0-1.2,0-1.7,0.1c-0.4,0-0.9,0.1-1.3,0.2
	c-4.3,0.7-8.4,2.8-11.5,6c-0.3,0.3-0.5,0.5-0.8,0.8c0,0,0,0,0,0c-3.4,3.8-5.3,8.8-5.3,14c0,4.9,1.6,9.4,4.6,13.2
	c0.6,0.8,1.3,1.5,2,2.2c1.1,1,2.2,1.9,3.4,2.7c3.3,2,7.1,3.1,11.1,3.1c5.8,0,11.3-2.4,15.3-6.5c0.4-0.5,0.8-0.9,1.2-1.4c0,0,0,0,0,0
	c3-3.8,4.6-8.3,4.6-13.2c0-1.8-0.2-3.6-0.7-5.3l3.4-4.4c1.6-2.1,2.6-4.3,2.9-6.5c0.6-4-0.6-8-3.1-11.1
	C186.4,143.6,183,141.9,179.2,141.6z M180.8,185.6c-1.6-0.9-3.5-1.7-5.6-2.3c0.6-2.3,1-4.9,1.1-7.5l1.3,1.7c0.2,0.2,0.4,0.3,0.6,0.3
	h0c0.3,0,0.5-0.1,0.6-0.3l2-2.7h3.7C184.4,178.7,183.1,182.4,180.8,185.6z M179.7,186.9c-0.4,0.5-0.9,0.9-1.3,1.4
	c0,0-0.1,0.1-0.1,0.1c-0.5,0.4-1,0.8-1.5,1.2c0,0-0.1,0.1-0.1,0.1c-0.5,0.4-1,0.7-1.6,1.1c0,0-0.1,0-0.1,0.1
	c-0.6,0.3-1.1,0.6-1.7,0.9c0,0-0.1,0-0.1,0c-0.6,0.3-1.2,0.5-1.9,0.7c0,0,0,0,0,0c-0.3,0.1-0.7,0.2-1,0.3c1.8-1.8,3.4-4.5,4.5-7.9
	C176.6,185.3,178.3,186,179.7,186.9C179.7,186.9,179.7,186.9,179.7,186.9z M158.9,192.5c-0.6-0.2-1.2-0.4-1.7-0.7
	c-0.1,0-0.1-0.1-0.2-0.1c-0.5-0.3-1.1-0.5-1.6-0.8c-0.1,0-0.2-0.1-0.2-0.1c-0.5-0.3-1-0.6-1.5-1c-0.1-0.1-0.2-0.1-0.2-0.2
	c-0.5-0.4-0.9-0.7-1.4-1.2c-0.1-0.1-0.1-0.1-0.2-0.2c-0.5-0.4-0.9-0.9-1.3-1.4c0,0,0,0,0,0c1.4-0.8,3.2-1.5,5-2
	c1.1,3.5,2.6,6.2,4.4,7.9c-0.3-0.1-0.6-0.1-0.9-0.2C159,192.5,159,192.5,158.9,192.5z M150.1,161.5c1.5,0.8,3.3,1.5,5.3,2
	c-0.9,2.9-1.3,6.2-1.4,9.6h-8.3C145.8,168.9,147.4,164.8,150.1,161.5z M151.6,159.9c0.2-0.2,0.4-0.4,0.6-0.6
	c0.3-0.2,0.5-0.5,0.8-0.7c0.2-0.2,0.4-0.4,0.7-0.5c0.3-0.2,0.6-0.4,0.9-0.6c0.2-0.2,0.5-0.3,0.7-0.4c0.3-0.2,0.6-0.3,0.9-0.5
	c0.2-0.1,0.5-0.3,0.7-0.4c0.3-0.2,0.7-0.3,1-0.4c0.3-0.1,0.5-0.2,0.8-0.3c0.4-0.1,0.7-0.2,1.1-0.3c0,0,0.1,0,0.1,0
	c-1.6,1.6-3,3.9-4.1,6.9c-1.7-0.5-3.3-1-4.6-1.7C151.3,160.2,151.5,160.1,151.6,159.9z M166.6,163.2c-0.2,0-0.4,0-0.7,0v-1.1
	c0.2,0.3,0.4,0.7,0.6,1C166.5,163.1,166.6,163.1,166.6,163.2z M165.9,164.8c0.6,0,1.2,0,1.8-0.1l6.5,8.4h-8.3V164.8z M164.3,154.5
	v8.7c-2.3,0-4.7-0.3-6.8-0.8C159.1,157.9,161.7,155,164.3,154.5z M157,164c2.3,0.5,4.8,0.8,7.3,0.8v8.3h-8.7
	C155.7,169.9,156.1,166.8,157,164z M164.3,174.8v7.2c-2.7,0.1-5.2,0.4-7.6,0.9c-0.6-2.5-1-5.3-1.1-8.1H164.3z M164.3,183.6v9.8
	c-2.9-0.5-5.6-3.8-7.2-8.9C159.4,183.9,161.8,183.6,164.3,183.6z M165.9,193.4v-9.8c2.5,0.1,4.9,0.3,7.2,0.9
	C171.5,189.5,168.8,192.9,165.9,193.4z M173.6,182.9c-2.4-0.6-5-0.9-7.7-0.9v-7.2h8.7C174.6,177.6,174.2,180.4,173.6,182.9z
	 M154,174.8c0.1,3,0.4,5.9,1.1,8.5c-2.1,0.6-4,1.4-5.6,2.3c-2.4-3.2-3.7-6.9-3.8-10.8H154z M178.2,175.6l-0.6-0.8h1.3L178.2,175.6z
	 M184.3,170.3c0.2,0.9,0.3,1.9,0.3,2.8h-2.5l0.6-0.8L184.3,170.3z M190.3,157.5c-0.3,2-1.1,3.9-2.6,5.8L184,168c0,0,0,0,0,0l-4,5.2
	h-3.8l-7.5-9.8l0,0l0,0l0,0l-0.1-0.1c-0.2-0.3-0.4-0.5-0.6-0.8c-1.1-1.6-1.8-3.3-2-5c-0.1-0.5-0.1-1.1-0.1-1.8c0-0.3,0-0.7,0-1
	c0-0.3,0.1-0.6,0.1-0.9c0,0,0,0,0,0c0,0,0,0,0,0c0.9-5.8,5.5-10.1,11.2-10.5c0.6-0.1,1.2-0.1,1.8,0c0,0,0,0,0,0
	c3.3,0.2,6.3,1.8,8.4,4.4C189.8,150.4,190.8,154,190.3,157.5z"/>
<path d="M14.7,192.8h40.8c3.4,0,6.2-2.8,6.2-6.2v-3.3c0-0.5-0.4-0.8-0.8-0.8h-2.6v-7.7c0-0.5-0.4-0.8-0.8-0.8
	c-0.5,0-0.8,0.4-0.8,0.8v7.7H42.1c-0.2,0-0.4,0.1-0.6,0.2l-3.2,3.2h-6.5l-3.2-3.2c-0.2-0.2-0.4-0.2-0.6-0.2H14.4V154h15.5
	c0.5,0,0.8-0.4,0.8-0.8c0-0.5-0.4-0.8-0.8-0.8H13.6c-0.5,0-0.8,0.4-0.8,0.8v29.3H9.4c-0.5,0-0.8,0.4-0.8,0.8v3.3
	C8.5,190,11.3,192.8,14.7,192.8z M10.2,184.2h17.5l3.2,3.2c0.2,0.2,0.4,0.2,0.6,0.2h7.2c0.2,0,0.4-0.1,0.6-0.2l3.2-3.2H60v2.5
	c0,2.5-2,4.5-4.5,4.5H14.7c-2.5,0-4.5-2-4.5-4.5V184.2z"/>
<path d="M43.6,159.7c4,0,7.3,3.3,7.3,7.3c0,0.5,0.4,0.8,0.8,0.8c0.5,0,0.8-0.4,0.8-0.8c0-5-4-9-9-9c-0.5,0-0.8,0.4-0.8,0.8
	C42.8,159.3,43.1,159.7,43.6,159.7z"/>
<path d="M43.6,154c7.2,0,13,5.8,13,13c0,0.5,0.4,0.8,0.8,0.8c0.5,0,0.8-0.4,0.8-0.8c0-8.1-6.6-14.7-14.7-14.7
	c-0.5,0-0.8,0.4-0.8,0.8C42.8,153.6,43.1,154,43.6,154z"/>
<path d="M43.6,146.6c-0.5,0-0.8,0.4-0.8,0.8c0,0.5,0.4,0.8,0.8,0.8c10.3,0,18.7,8.4,18.7,18.7c0,0.5,0.4,0.8,0.8,0.8
	c0.5,0,0.8-0.4,0.8-0.8C64,155.7,54.8,146.6,43.6,146.6z"/>
<path d="M38.9,165.4c-0.8,0.8-1.3,1.9-1.3,3.1s0.5,2.3,1.3,3.1c0.9,0.9,2,1.3,3.1,1.3c1.1,0,2.3-0.4,3.1-1.3c1.7-1.7,1.7-4.5,0-6.2
	C43.4,163.7,40.6,163.7,38.9,165.4z M44,170.5c-1.1,1.1-2.8,1.1-3.9,0c-0.5-0.5-0.8-1.2-0.8-1.9c0-0.7,0.3-1.4,0.8-1.9
	c0.5-0.5,1.2-0.8,1.9-0.8c0.7,0,1.4,0.3,1.9,0.8C45,167.7,45,169.4,44,170.5z"/>
<path d="M210.2,180.5h22.6c1.1,0,2-0.9,2-2v-22.6c0-1.1-0.9-2-2-2h-22.6c-1.1,0-2,0.9-2,2v22.6C208.2,179.6,209.1,180.5,210.2,180.5
	z M209.9,155.8c0-0.2,0.1-0.3,0.3-0.3h22.6c0.2,0,0.3,0.1,0.3,0.3v22.6c0,0.2-0.1,0.3-0.3,0.3h-22.6c-0.2,0-0.3-0.1-0.3-0.3V155.8z"
	/>
<path d="M201.9,168.8c-0.5,0-0.9,0.4-0.9,0.9v7.1c0,0.5,0.4,0.9,0.9,0.9h2.2v2.6c0,2.4,1.9,4.3,4.3,4.3h3.2l2,9.6
	c0.2,0.9,1,1.5,1.8,1.5h12.2c0.9,0,1.7-0.6,1.8-1.5l2-9.6h3.2c2.4,0,4.3-1.9,4.3-4.3v-8.7h2.2c0.5,0,0.9-0.4,0.9-0.9v-7.1
	c0-0.5-0.4-0.9-0.9-0.9h-2.2v-8.7c0-2.4-1.9-4.3-4.3-4.3h-3.2l-2-9.6c-0.2-0.9-1-1.5-1.8-1.5h-12.2c-0.9,0-1.7,0.6-1.8,1.5l-2,9.6
	h-3.2c-2.4,0-4.3,1.9-4.3,4.3v2.6h-2.2c-0.5,0-0.9,0.4-0.9,0.9v7.1c0,0.5,0.4,0.9,0.9,0.9h2.2v3.3H201.9z M202.7,175.9v-5.4h1.4v5.4
	H202.7z M227.8,193.8c0,0.1-0.1,0.1-0.2,0.1h-12.2c-0.1,0-0.1-0.1-0.2-0.1l-1.9-9.3h16.3L227.8,193.8z M240.3,164.5v5.4h-1.4v-5.4
	H240.3z M215.2,140.5c0-0.1,0.1-0.1,0.2-0.1h12.2c0.1,0,0.1,0.1,0.2,0.1l1.9,9.3h-16.3L215.2,140.5z M205.8,154.1
	c0-1.4,1.2-2.6,2.6-2.6h26.2c1.4,0,2.6,1.2,2.6,2.6v26.2c0,1.4-1.2,2.6-2.6,2.6h-26.2c-1.4,0-2.6-1.2-2.6-2.6V154.1z M202.7,163.8
	v-5.4h1.4v5.4H202.7z"/>
</svg>
